<svg xmlns="http://www.w3.org/2000/svg" xmlns:xlink="http://www.w3.org/1999/xlink" viewBox="0 0 969.15 705.24"><defs><style>.cls-1,.cls-3{fill:#547385;}.cls-1,.cls-11,.cls-13,.cls-7,.cls-8,.cls-9{stroke:#fbfd89;}.cls-1,.cls-11,.cls-12,.cls-13,.cls-6,.cls-7,.cls-8,.cls-9{stroke-miterlimit:10;}.cls-1,.cls-13{stroke-width:1.06px;}.cls-2{fill:#90a4b0;}.cls-4{fill:#fff;}.cls-5{fill:#fbfd89;}.cls-11,.cls-12,.cls-13,.cls-6,.cls-7,.cls-8,.cls-9{fill:none;}.cls-12,.cls-6{stroke:#fff;}.cls-6{stroke-width:1.42px;}.cls-7{stroke-width:0.71px;}.cls-8{stroke-width:0.99px;}.cls-9{stroke-width:0.77px;}.cls-10{clip-path:url(#clip-path);}.cls-11{stroke-width:0.89px;}.cls-12{stroke-width:4.25px;}</style><clipPath id="clip-path"><circle class="cls-1" cx="91.52" cy="610.54" r="57.11"/></clipPath></defs><g id="Bakcrgound"><rect class="cls-2" y="-0.54" width="969.15" height="705.78"/></g><g id="Pitch_Information" data-name="Pitch Information"><rect class="cls-3" x="59.55" y="59.12" width="850.04" height="582.71"/><path class="cls-4" d="M903.12,635H66V65.82h837.1ZM67.39,633.64H901.76V67.19H67.39Z"/><rect class="cls-4" x="483.89" y="66.36" width="1.36" height="567.82"/><path class="cls-4" d="M66.7,75.42v-1a7.37,7.37,0,0,0,7.37-7.36h1A8.37,8.37,0,0,1,66.7,75.42Z"/><path class="cls-4" d="M902.44,75.42a8.37,8.37,0,0,1-8.36-8.36h1a7.37,7.37,0,0,0,7.36,7.36Z"/><path class="cls-4" d="M895.08,634.88h-1a8.38,8.38,0,0,1,8.36-8.37v1A7.37,7.37,0,0,0,895.08,634.88Z"/><path class="cls-4" d="M75.07,634.88h-1a7.38,7.38,0,0,0-7.37-7.37v-1A8.38,8.38,0,0,1,75.07,634.88Z"/><path class="cls-4" d="M484.57,420.61a70.34,70.34,0,1,1,70.34-70.34A70.42,70.42,0,0,1,484.57,420.61Zm0-139.29a69,69,0,1,0,69,68.95A69,69,0,0,0,484.57,281.32Z"/><path class="cls-4" d="M199.66,405.71l-.84-1.07a69,69,0,0,0,0-108.65l.84-1.07a70.33,70.33,0,0,1,0,110.79Z"/><polygon class="cls-4" points="199.92 513.97 67.04 513.97 67.04 512.61 198.56 512.61 198.56 188.02 67.04 188.02 67.04 186.66 199.92 186.66 199.92 513.97"/><polygon class="cls-4" points="112.67 420.64 67.04 420.64 67.04 419.28 111.31 419.28 111.31 281.35 67.04 281.35 67.04 279.99 112.67 279.99 112.67 420.64"/><polyline class="cls-3" points="66.04 385.03 43.63 385.03 43.63 315.59 66.04 315.59"/><polygon class="cls-4" points="66.04 385.71 42.95 385.71 42.95 314.91 66.04 314.91 66.04 316.27 44.31 316.27 44.31 384.35 66.04 384.35 66.04 385.71"/><path class="cls-4" d="M770,405.71a70.33,70.33,0,0,1,0-110.79l.84,1.07a69,69,0,0,0,0,108.65Z"/><polygon class="cls-4" points="902.6 513.97 769.72 513.97 769.72 186.66 902.6 186.66 902.6 188.02 771.08 188.02 771.08 512.61 902.6 512.61 902.6 513.97"/><polygon class="cls-4" points="902.6 420.64 856.97 420.64 856.97 279.99 902.6 279.99 902.6 281.35 858.33 281.35 858.33 419.28 902.6 419.28 902.6 420.64"/><polyline class="cls-3" points="903.12 315.59 925.53 315.59 925.53 385.03 903.12 385.03"/><polygon class="cls-4" points="926.21 385.71 903.06 385.71 903.06 384.35 924.85 384.35 924.85 316.27 903.06 316.27 903.06 314.91 926.21 314.91 926.21 385.71"/><line class="cls-3" x1="68.1" y1="67.22" x2="40.9" y2="51.02"/><rect class="cls-5" x="53.65" y="43.29" width="1.69" height="31.67" transform="matrix(0.51, -0.86, 0.86, 0.51, -24.18, 75.69)"/><polygon class="cls-5" points="51.49 57.33 57.85 47.59 47.32 41.17 40.9 51.02 51.49 57.33"/><line class="cls-3" x1="68.1" y1="633.33" x2="40.9" y2="649.54"/><rect class="cls-5" x="38.67" y="640.59" width="31.67" height="1.69" transform="translate(-320.85 118.44) rotate(-30.81)"/><polygon class="cls-5" points="51.49 643.23 57.85 652.97 47.32 659.38 40.9 649.54 51.49 643.23"/><line class="cls-3" x1="901.6" y1="67.22" x2="928.81" y2="51.02"/><rect class="cls-5" x="899.37" y="58.27" width="31.67" height="1.69" transform="translate(98.83 477) rotate(-30.8)"/><polygon class="cls-5" points="918.22 57.33 911.85 47.59 922.39 41.17 928.81 51.02 918.22 57.33"/><line class="cls-3" x1="484.53" y1="44.73" x2="468.32" y2="17.53"/><rect class="cls-5" x="475.58" y="15.3" width="1.69" height="31.67" transform="translate(51.26 248.36) rotate(-30.8)"/><polygon class="cls-5" points="474.63 28.12 464.89 34.48 458.48 23.95 468.32 17.52 474.63 28.12"/><line class="cls-3" x1="486.24" y1="655.43" x2="478.46" y2="686.13"/><rect class="cls-5" x="466.51" y="669.93" width="31.67" height="1.69" transform="translate(-286.25 973.87) rotate(-75.8)"/><polygon class="cls-5" points="481.49 674.17 492.87 676.56 489.96 688.55 478.46 686.13 481.49 674.17"/><line class="cls-3" x1="901.6" y1="633.33" x2="928.81" y2="649.54"/><rect class="cls-5" x="914.36" y="625.6" width="1.69" height="31.67" transform="translate(-104.22 1099.5) rotate(-59.22)"/><polygon class="cls-5" points="918.22 643.23 911.85 652.97 922.39 659.38 928.81 649.54 918.22 643.23"/><line class="cls-6" x1="841.16" y1="59.12" x2="841.16" y2="66.35"/><line class="cls-6" x1="909.6" y1="128.48" x2="903.12" y2="128.48"/><line class="cls-7" x1="483.45" y1="350.27" x2="422.2" y2="350.27"/><polygon class="cls-5" points="423.23 346.74 417.11 350.27 423.23 353.81 423.23 346.74"/><circle class="cls-4" cx="484.57" cy="350.31" r="4.44"/><circle class="cls-4" cx="155.47" cy="350.27" r="4.44"/><line class="cls-7" x1="813.84" y1="350.27" x2="751.59" y2="350.27"/><polygon class="cls-5" points="752.62 346.74 746.5 350.27 752.62 353.81 752.62 346.74"/><line class="cls-7" x1="901.76" y1="350.27" x2="825.37" y2="350.27"/><polygon class="cls-5" points="826.4 346.74 820.29 350.27 826.4 353.81 826.4 346.74"/><circle class="cls-4" cx="813.84" cy="350.27" r="4.44"/><path class="cls-5" d="M36,223.56h5.66v1.94H36.19c-.85,0-1.29.46-1.29,1.17v.41a1.5,1.5,0,0,0,1.63,1.55h5.12v1.94H36.19a1.13,1.13,0,0,0-1.29,1.17v.41a1.5,1.5,0,0,0,1.63,1.54h5.12v1.94h-8.3V234l1-.12a2.44,2.44,0,0,1-1.19-2.28v-.3A2.5,2.5,0,0,1,34.44,229a2.67,2.67,0,0,1-1.26-2.39v-.38A2.56,2.56,0,0,1,36,223.56Z"/><path class="cls-5" d="M30,220.81v-1.94h1.84v1.94Zm3.31,0v-1.94h8.3v1.94Z"/><path class="cls-5" d="M36,208.89h5.66v1.94H36.19A1.13,1.13,0,0,0,34.9,212v.49A1.5,1.5,0,0,0,36.53,214h5.12V216h-8.3v-1.63l1-.12a2.49,2.49,0,0,1-1.21-2.3v-.37A2.56,2.56,0,0,1,36,208.89Z"/><path class="cls-5" d="M39.41,206.22v-2.11h2.24v2.11Z"/><path class="cls-5" d="M39.56,189.43v1.48h2.09v1.9H39.56v4.83H38l-7.92-3.3v-2.07l7.72,3.12v-2.58H35.12v-1.9h2.69v-1.48Z"/><path class="cls-5" d="M37.43,180h1.23c1.9,0,3.16,1.41,3.16,3.5v.8c0,2.14-1.26,3.5-3.26,3.5v-1.91a1.47,1.47,0,0,0,1.49-1.64v-.62a1.46,1.46,0,0,0-1.49-1.61h-1A1.48,1.48,0,0,0,36,183.71v3.66H30.09v-6.66h1.75v4.77h2.43v-2C34.27,181.33,35.53,180,37.43,180Z"/><path class="cls-5" d="M36,163.83h5.66v1.93H36.19a1.13,1.13,0,0,0-1.29,1.18v.4a1.5,1.5,0,0,0,1.63,1.55h5.12v1.94H36.19A1.13,1.13,0,0,0,34.9,172v.41A1.51,1.51,0,0,0,36.53,174h5.12v1.93h-8.3v-1.63l1-.12a2.43,2.43,0,0,1-1.19-2.27v-.31a2.48,2.48,0,0,1,1.26-2.31,2.69,2.69,0,0,1-1.26-2.4v-.37A2.55,2.55,0,0,1,36,163.83Z"/><path class="cls-5" d="M29.58,154v-1.91L41.82,156v1.89Z"/><path class="cls-5" d="M36,134h5.66v1.94H36.19c-.85,0-1.29.46-1.29,1.17v.41A1.5,1.5,0,0,0,36.53,139h5.12V141H36.19a1.13,1.13,0,0,0-1.29,1.17v.41a1.51,1.51,0,0,0,1.63,1.55h5.12V146h-8.3v-1.63l1-.12A2.43,2.43,0,0,1,33.18,142v-.3a2.48,2.48,0,0,1,1.26-2.31,2.7,2.7,0,0,1-1.26-2.4v-.37A2.56,2.56,0,0,1,36,134Z"/><path class="cls-5" d="M35.89,124.64h5.76v1.58l-1,.12a2.35,2.35,0,0,1,1.14,2.11V129a2.48,2.48,0,0,1-2.5,2.77c-1.61,0-2.57-1.16-2.57-2.92v-2.33h-.86c-.7,0-1.07.49-1.07,1.22v.6c0,.78.42,1.2,1.07,1.2v1.86a2.68,2.68,0,0,1-2.71-2.91v-1A2.65,2.65,0,0,1,35.89,124.64Zm2.84,1.89h-.6v2.33a1,1,0,0,0,1.09,1c.68,0,1.05-.49,1.05-1.22v-.54A1.48,1.48,0,0,0,38.73,126.53Z"/><path class="cls-5" d="M41.65,117l-2.92,1.88,2.92,1.89v2.16l-4.35-3-3.95,2.65v-2.16l2.59-1.58-2.59-1.63v-2.14l3.93,2.7,4.37-3Z"/><path class="cls-5" d="M39.41,113v-2.11h2.24V113Z"/><path class="cls-5" d="M33,96h5.56a3.14,3.14,0,0,1,3.25,3.43v.8c0,2.18-1.24,3.49-3.32,3.49v-2a1.48,1.48,0,0,0,1.55-1.63v-.48a1.49,1.49,0,0,0-1.61-1.63H36.92a2.63,2.63,0,0,1,.75,1.94v.71A3.06,3.06,0,0,1,34.43,104H33c-1.85,0-3.09-1.36-3.09-3.44v-1C29.92,97.42,31.16,96,33,96Zm1.36,2H33.12a1.41,1.41,0,0,0-1.48,1.58v.77A1.42,1.42,0,0,0,33.12,102h1.24A1.48,1.48,0,0,0,36,100.4v-.82A1.47,1.47,0,0,0,34.37,98.05Z"/><path class="cls-5" d="M33.46,85.34h5a3.24,3.24,0,0,1,3.38,3.48v1a3.25,3.25,0,0,1-3.38,3.5h-5a3.32,3.32,0,0,1-3.54-3.5v-1A3.31,3.31,0,0,1,33.46,85.34Zm-1.79,4.42a1.56,1.56,0,0,0,1.77,1.58h5a1.49,1.49,0,0,0,1.62-1.58v-.82a1.49,1.49,0,0,0-1.62-1.58h-5a1.56,1.56,0,0,0-1.77,1.58Z"/><path class="cls-5" d="M36,68.8h5.66v1.94H36.19c-.85,0-1.29.45-1.29,1.17v.41a1.5,1.5,0,0,0,1.63,1.54h5.12V75.8H36.19A1.13,1.13,0,0,0,34.9,77v.41a1.5,1.5,0,0,0,1.63,1.55h5.12v1.94h-8.3V79.23l1-.12a2.43,2.43,0,0,1-1.19-2.27v-.31a2.48,2.48,0,0,1,1.26-2.31,2.69,2.69,0,0,1-1.26-2.4v-.37A2.55,2.55,0,0,1,36,68.8Z"/><path class="cls-5" d="M736.55,663.65v5.66h-1.94v-5.46c0-.85-.46-1.29-1.17-1.29H733a1.5,1.5,0,0,0-1.54,1.63v5.12h-1.94v-5.46a1.14,1.14,0,0,0-1.18-1.29H728a1.5,1.5,0,0,0-1.55,1.63v5.12h-1.94V661h1.63l.12,1a2.42,2.42,0,0,1,2.28-1.19h.31a2.5,2.5,0,0,1,2.31,1.26,2.67,2.67,0,0,1,2.4-1.26h.37A2.55,2.55,0,0,1,736.55,663.65Z"/><path class="cls-5" d="M739.31,657.7h1.93v1.83h-1.93Zm0,3.31h1.93v8.3h-1.93Z"/><path class="cls-5" d="M751.22,663.65v5.66h-1.94v-5.46a1.13,1.13,0,0,0-1.17-1.29h-.49a1.5,1.5,0,0,0-1.55,1.63v5.12h-1.94V661h1.64l.11,1a2.49,2.49,0,0,1,2.3-1.21h.37A2.55,2.55,0,0,1,751.22,663.65Z"/><path class="cls-5" d="M753.89,667.06H756v2.25h-2.11Z"/><path class="cls-5" d="M770.84,660.67v5.56a3.14,3.14,0,0,1-3.43,3.25h-.8c-2.18,0-3.49-1.25-3.49-3.32h2a1.48,1.48,0,0,0,1.63,1.55h.48a1.49,1.49,0,0,0,1.63-1.62v-1.51a2.63,2.63,0,0,1-1.94.75h-.72a3.06,3.06,0,0,1-3.26-3.25v-1.41c0-1.85,1.36-3.09,3.43-3.09h1C769.45,657.58,770.84,658.82,770.84,660.67Zm-2,1.36v-1.26a1.42,1.42,0,0,0-1.58-1.48h-.77a1.43,1.43,0,0,0-1.58,1.48V662a1.48,1.48,0,0,0,1.58,1.6h.82A1.46,1.46,0,0,0,768.82,662Z"/><path class="cls-5" d="M781.53,661.11v5a3.25,3.25,0,0,1-3.48,3.39h-1a3.26,3.26,0,0,1-3.5-3.39v-5a3.31,3.31,0,0,1,3.5-3.53h1A3.31,3.31,0,0,1,781.53,661.11Zm-4.42-1.78a1.56,1.56,0,0,0-1.58,1.77v5a1.49,1.49,0,0,0,1.58,1.61h.82a1.48,1.48,0,0,0,1.58-1.61v-5a1.56,1.56,0,0,0-1.58-1.77Z"/><path class="cls-5" d="M798.41,663.65v5.66h-1.93v-5.46a1.13,1.13,0,0,0-1.18-1.29h-.41a1.5,1.5,0,0,0-1.54,1.63v5.12h-1.94v-5.46a1.13,1.13,0,0,0-1.17-1.29h-.41a1.5,1.5,0,0,0-1.55,1.63v5.12h-1.94V661H788l.11,1a2.43,2.43,0,0,1,2.28-1.19h.31A2.48,2.48,0,0,1,793,662.1a2.67,2.67,0,0,1,2.4-1.26h.37A2.55,2.55,0,0,1,798.41,663.65Z"/><path class="cls-5" d="M808.22,657.24h1.91l-3.9,12.24h-1.88Z"/><path class="cls-5" d="M828.26,663.65v5.66h-1.93v-5.46a1.13,1.13,0,0,0-1.18-1.29h-.4a1.5,1.5,0,0,0-1.55,1.63v5.12h-1.94v-5.46a1.13,1.13,0,0,0-1.17-1.29h-.41a1.5,1.5,0,0,0-1.55,1.63v5.12H816.2V661h1.63l.12,1a2.41,2.41,0,0,1,2.27-1.19h.31a2.48,2.48,0,0,1,2.31,1.26,2.67,2.67,0,0,1,2.4-1.26h.37A2.55,2.55,0,0,1,828.26,663.65Z"/><path class="cls-5" d="M837.6,663.54v5.77H836l-.12-1a2.36,2.36,0,0,1-2.11,1.14h-.56a2.48,2.48,0,0,1-2.77-2.5c0-1.62,1.15-2.57,2.92-2.57h2.33v-.87c0-.69-.49-1.07-1.22-1.07h-.6c-.78,0-1.2.43-1.2,1.07h-1.86a2.67,2.67,0,0,1,2.91-2.7h1A2.64,2.64,0,0,1,837.6,663.54Zm-1.89,2.84v-.59h-2.33a1,1,0,0,0-1,1.08c0,.68.49,1.06,1.22,1.06h.54A1.48,1.48,0,0,0,835.71,666.38Z"/><path class="cls-5" d="M845.28,669.31l-1.89-2.93-1.88,2.93h-2.16l3-4.36L839.65,661h2.16l1.58,2.58L845,661h2.14l-2.7,3.93,3,4.37Z"/><path class="cls-5" d="M849.26,667.06h2.11v2.25h-2.11Z"/><path class="cls-5" d="M862,657.75v11.56h-2V660l-2.17,1.46v-2.06l2.34-1.66Z"/><path class="cls-5" d="M872.4,667.55v1.76h-7.69v-2.69c0-1.89.84-2.86,3.25-3.45,1.68-.41,2.33-1,2.33-2.28,0-1.12-.67-1.58-1.68-1.58h-.14c-1.22,0-1.72.58-1.72,1.45h-1.94c0-2.16,1.48-3.18,3.71-3.18h.15c2.38,0,3.64,1.25,3.64,3.35s-1.12,3.19-3.65,3.92c-1.06.31-1.92.56-1.92,1.79v.91Z"/><path class="cls-5" d="M882.71,661.11v5a3.25,3.25,0,0,1-3.48,3.39h-1a3.26,3.26,0,0,1-3.5-3.39v-5a3.32,3.32,0,0,1,3.5-3.53h1A3.31,3.31,0,0,1,882.71,661.11Zm-4.42-1.78a1.57,1.57,0,0,0-1.58,1.77v5a1.49,1.49,0,0,0,1.58,1.61h.82a1.48,1.48,0,0,0,1.58-1.61v-5a1.56,1.56,0,0,0-1.58-1.77Z"/><path class="cls-5" d="M899.6,663.65v5.66h-1.94v-5.46a1.13,1.13,0,0,0-1.18-1.29h-.4a1.5,1.5,0,0,0-1.55,1.63v5.12h-1.94v-5.46a1.13,1.13,0,0,0-1.17-1.29H891a1.51,1.51,0,0,0-1.55,1.63v5.12h-1.93V661h1.63l.12,1a2.41,2.41,0,0,1,2.27-1.19h.31a2.48,2.48,0,0,1,2.31,1.26,2.67,2.67,0,0,1,2.4-1.26h.37A2.56,2.56,0,0,1,899.6,663.65Z"/><path class="cls-5" d="M89.86,367.62h1.66l9.9,3.86v2.17l-9.76-3.92v4.89h-1.8Z"/><path class="cls-5" d="M99.17,366.49V364.4l4.37,1.23v1.7Z"/><path class="cls-5" d="M98,354.51h.47c1.89,0,3.15,1.39,3.15,3.47v1.09c0,2.12-1.24,3.48-3.22,3.48v-1.9A1.46,1.46,0,0,0,99.82,359v-.89a1.47,1.47,0,0,0-1.45-1.63h-.44a1.53,1.53,0,0,0-1.61,1.68v1.62H94.58v-1.35a1.48,1.48,0,0,0-1.51-1.66h-.31c-.9,0-1.39.64-1.39,1.61v.31c0,1.05.56,1.65,1.39,1.65v1.92c-1.9,0-3.07-1.46-3.07-3.57v-.38c0-2.14,1.19-3.5,3-3.5H93a2.48,2.48,0,0,1,2.31,1.46A2.71,2.71,0,0,1,98,354.51Z"/><path class="cls-5" d="M99.67,344.72h1.75v7.68H98.73c-1.89,0-2.86-.83-3.45-3.24-.41-1.69-1-2.33-2.28-2.33-1.12,0-1.58.66-1.58,1.68v.14c0,1.22.58,1.71,1.45,1.71v1.94c-2.16,0-3.18-1.48-3.18-3.71v-.15c0-2.38,1.26-3.64,3.35-3.64s3.19,1.13,3.92,3.66c.31,1.05.56,1.92,1.79,1.92h.92Z"/><path class="cls-5" d="M95.76,328.55h5.66v1.94H96c-.85,0-1.29.46-1.29,1.17v.41a1.5,1.5,0,0,0,1.63,1.55h5.12v1.94H96a1.13,1.13,0,0,0-1.29,1.17v.41a1.5,1.5,0,0,0,1.63,1.54h5.12v1.94h-8.3V339l1-.12A2.42,2.42,0,0,1,93,336.59v-.3A2.5,2.5,0,0,1,94.21,334,2.65,2.65,0,0,1,93,331.58v-.38A2.55,2.55,0,0,1,95.76,328.55Z"/><path class="cls-5" d="M786,331.23h5.56a3.14,3.14,0,0,1,3.25,3.43v.8c0,2.18-1.24,3.49-3.31,3.49v-2a1.47,1.47,0,0,0,1.54-1.63v-.48a1.49,1.49,0,0,0-1.61-1.63h-1.52a2.63,2.63,0,0,1,.75,1.94v.71a3.06,3.06,0,0,1-3.24,3.27H786c-1.85,0-3.09-1.36-3.09-3.44v-1C782.88,332.62,784.12,331.23,786,331.23Zm1.36,2h-1.25a1.41,1.41,0,0,0-1.48,1.58v.77a1.42,1.42,0,0,0,1.48,1.58h1.24a1.48,1.48,0,0,0,1.6-1.58v-.82A1.47,1.47,0,0,0,787.33,333.25Z"/><path class="cls-5" d="M792.37,328.25v-2.09l4.37,1.23v1.7Z"/><path class="cls-5" d="M783.05,320.71h11.56v2h-9.3l1.46,2.18h-2l-1.67-2.35Z"/><path class="cls-5" d="M790.39,310.17h1.23c1.9,0,3.16,1.41,3.16,3.5v.8c0,2.14-1.26,3.5-3.26,3.5v-1.91a1.47,1.47,0,0,0,1.49-1.64v-.62a1.46,1.46,0,0,0-1.49-1.61h-1a1.48,1.48,0,0,0-1.51,1.66v3.66h-5.92v-6.66h1.75v4.77h2.43v-2C787.23,311.47,788.49,310.17,790.39,310.17Z"/><path class="cls-5" d="M789,294h5.66v1.93h-5.46a1.13,1.13,0,0,0-1.29,1.18v.4a1.51,1.51,0,0,0,1.63,1.55h5.12V301h-5.46a1.13,1.13,0,0,0-1.29,1.17v.41a1.51,1.51,0,0,0,1.63,1.55h5.12V306h-8.29V304.4l1-.12a2.42,2.42,0,0,1-1.18-2.27v-.31a2.47,2.47,0,0,1,1.25-2.31,2.68,2.68,0,0,1-1.25-2.4v-.37A2.55,2.55,0,0,1,789,294Z"/><path class="cls-5" d="M454,333.23h5.56a3.14,3.14,0,0,1,3.25,3.43v.8c0,2.18-1.24,3.49-3.32,3.49v-2a1.48,1.48,0,0,0,1.55-1.63v-.48a1.49,1.49,0,0,0-1.61-1.63H458a2.63,2.63,0,0,1,.75,1.94v.71a3.06,3.06,0,0,1-3.25,3.27H454c-1.85,0-3.09-1.36-3.09-3.44v-1C451,334.62,452.19,333.23,454,333.23Zm1.36,2h-1.25a1.41,1.41,0,0,0-1.48,1.58v.77a1.42,1.42,0,0,0,1.48,1.58h1.24A1.47,1.47,0,0,0,457,337.6v-.82A1.46,1.46,0,0,0,455.4,335.25Z"/><path class="cls-5" d="M460.43,330.25v-2.09l4.37,1.23v1.7Z"/><path class="cls-5" d="M451.12,322.71h11.56v2h-9.3l1.46,2.18h-2l-1.67-2.35Z"/><path class="cls-5" d="M458.46,312.17h1.23c1.9,0,3.16,1.41,3.16,3.5v.8a3.16,3.16,0,0,1-3.27,3.5v-1.91a1.47,1.47,0,0,0,1.5-1.64v-.62a1.46,1.46,0,0,0-1.5-1.61h-1a1.49,1.49,0,0,0-1.52,1.66v3.66h-5.91v-6.66h1.75v4.77h2.43v-2C455.3,313.47,456.56,312.17,458.46,312.17Z"/><path class="cls-5" d="M457,296h5.66v1.93h-5.46a1.13,1.13,0,0,0-1.29,1.18v.4a1.5,1.5,0,0,0,1.63,1.55h5.12V303h-5.46a1.13,1.13,0,0,0-1.29,1.17v.41a1.51,1.51,0,0,0,1.63,1.55h5.12V308h-8.3V306.4l1-.12a2.41,2.41,0,0,1-1.19-2.27v-.31a2.48,2.48,0,0,1,1.26-2.31,2.69,2.69,0,0,1-1.26-2.4v-.37A2.55,2.55,0,0,1,457,296Z"/><path class="cls-5" d="M875,335.48h11.56v2h-9.3l1.47,2.18h-2.06L875,337.31Z"/><path class="cls-5" d="M875,329h11.56v2h-9.3l1.47,2.18h-2.06L875,330.82Z"/><path class="cls-5" d="M880.9,311.75h5.66v1.94h-5.45c-.85,0-1.3.45-1.3,1.17v.41a1.51,1.51,0,0,0,1.64,1.54h5.11v1.94h-5.45a1.14,1.14,0,0,0-1.3,1.17v.41a1.51,1.51,0,0,0,1.64,1.55h5.11v1.94h-8.29v-1.64l1-.11a2.43,2.43,0,0,1-1.19-2.28v-.31a2.46,2.46,0,0,1,1.26-2.31,2.67,2.67,0,0,1-1.26-2.4v-.37A2.55,2.55,0,0,1,880.9,311.75Z"/><path class="cls-5" d="M882.34,394h1.23c1.9,0,3.16,1.41,3.16,3.5v.8c0,2.14-1.26,3.5-3.26,3.5v-1.9a1.48,1.48,0,0,0,1.49-1.65v-.61a1.46,1.46,0,0,0-1.49-1.62h-1a1.49,1.49,0,0,0-1.51,1.67v3.65H875v-6.66h1.75v4.78h2.43v-2C879.18,395.32,880.44,394,882.34,394Z"/><path class="cls-5" d="M884.32,391.78v-2.09l4.37,1.23v1.69Z"/><path class="cls-5" d="M882.34,379.73h1.23c1.9,0,3.16,1.41,3.16,3.5v.8c0,2.14-1.26,3.5-3.26,3.5v-1.9A1.48,1.48,0,0,0,885,384v-.61a1.46,1.46,0,0,0-1.49-1.62h-1a1.49,1.49,0,0,0-1.51,1.67v3.65H875v-6.66h1.75v4.78h2.43v-2C879.18,381,880.44,379.73,882.34,379.73Z"/><path class="cls-5" d="M880.9,363.19h5.66v1.94H881.1c-.85,0-1.29.46-1.29,1.17v.41a1.51,1.51,0,0,0,1.63,1.55h5.12v1.93H881.1a1.14,1.14,0,0,0-1.29,1.18v.4a1.5,1.5,0,0,0,1.63,1.55h5.12v1.94h-8.29v-1.63l1-.12a2.44,2.44,0,0,1-1.18-2.28v-.31a2.49,2.49,0,0,1,1.25-2.31,2.67,2.67,0,0,1-1.25-2.39v-.38A2.55,2.55,0,0,1,880.9,363.19Z"/><line class="cls-7" x1="22.45" y1="634.79" x2="22.45" y2="67.67"/><rect class="cls-5" x="20.15" y="634.43" width="4.61" height="0.71"/><rect class="cls-5" x="20.15" y="67.32" width="4.61" height="0.71"/><line class="cls-7" x1="79.61" y1="384.68" x2="79.61" y2="315.27"/><rect class="cls-5" x="77.31" y="384.32" width="4.61" height="0.71"/><rect class="cls-5" x="77.31" y="314.91" width="4.61" height="0.71"/><line class="cls-7" x1="64.18" y1="677.7" x2="900.82" y2="677.7"/><rect class="cls-5" x="63.83" y="675.4" width="0.71" height="4.61"/><rect class="cls-5" x="900.46" y="675.4" width="0.71" height="4.61"/><line class="cls-7" x1="901.76" y1="410.64" x2="866.11" y2="410.64"/><polygon class="cls-5" points="867.14 407.11 861.02 410.64 867.14 414.18 867.14 407.11"/><line class="cls-7" x1="901.76" y1="254.4" x2="778.69" y2="254.4"/><polygon class="cls-5" points="779.73 250.87 773.61 254.4 779.73 257.94 779.73 250.87"/><line class="cls-7" x1="917.93" y1="385.71" x2="917.93" y2="506.78"/><polygon class="cls-5" points="914.4 505.75 917.93 511.87 921.47 505.75 914.4 505.75"/><line class="cls-7" x1="917.93" y1="315.13" x2="917.93" y2="284.54"/><polygon class="cls-5" points="921.47 285.58 917.93 279.46 914.4 285.58 921.47 285.58"/><line class="cls-8" x1="917.93" y1="127.99" x2="917.93" y2="75.91"/><rect class="cls-5" x="914.73" y="127.49" width="6.41" height="0.99"/><rect class="cls-5" x="914.73" y="75.42" width="6.41" height="0.99"/><path class="cls-5" d="M875,242h11.56v2h-9.29l1.46,2.17h-2.06L875,243.87Z"/><path class="cls-5" d="M882.45,231.09h1.19c1.85,0,3.09,1.34,3.09,3.41v1c0,2.09-1.24,3.49-3.09,3.49h-5.56a3.15,3.15,0,0,1-3.25-3.44v-.8a3.18,3.18,0,0,1,3.39-3.46v1.95a1.5,1.5,0,0,0-1.62,1.6v.49a1.56,1.56,0,0,0,1.68,1.65H880a2.58,2.58,0,0,1-.77-1.94v-.71A3.05,3.05,0,0,1,882.45,231.09Zm.07,2a1.47,1.47,0,0,0-1.6,1.57v.81A1.46,1.46,0,0,0,882.5,237h1a1.42,1.42,0,0,0,1.48-1.58v-.78a1.42,1.42,0,0,0-1.48-1.57Z"/><path class="cls-5" d="M884.32,228.31v-2.09l4.37,1.23v1.7Z"/><path class="cls-5" d="M882.35,216.26h1.22c1.91,0,3.16,1.41,3.16,3.5v.8c0,2.14-1.25,3.5-3.26,3.5v-1.9a1.48,1.48,0,0,0,1.5-1.65v-.61a1.47,1.47,0,0,0-1.5-1.62h-1a1.5,1.5,0,0,0-1.51,1.67v3.66H875v-6.67h1.76v4.78h2.43v-2C879.19,217.57,880.44,216.26,882.35,216.26Z"/><path class="cls-5" d="M880.9,200.06h5.66V202h-5.45c-.85,0-1.29.46-1.29,1.17v.41a1.51,1.51,0,0,0,1.63,1.55h5.11v1.93h-5.45a1.14,1.14,0,0,0-1.29,1.18v.41a1.5,1.5,0,0,0,1.63,1.54h5.11v1.94h-8.29V210.5l1-.12a2.42,2.42,0,0,1-1.19-2.28v-.3a2.48,2.48,0,0,1,1.26-2.32,2.65,2.65,0,0,1-1.26-2.39v-.38A2.55,2.55,0,0,1,880.9,200.06Z"/><path class="cls-5" d="M930.26,438.83h11.56v2h-9.3L934,443h-2.05l-1.67-2.35Z"/><path class="cls-5" d="M937.71,427.88h1.19c1.85,0,3.09,1.34,3.09,3.41v1c0,2.1-1.24,3.49-3.09,3.49h-5.56a3.14,3.14,0,0,1-3.25-3.43v-.8a3.18,3.18,0,0,1,3.38-3.47v1.95a1.5,1.5,0,0,0-1.61,1.6v.49a1.55,1.55,0,0,0,1.68,1.65h1.68a2.6,2.6,0,0,1-.76-1.93v-.72A3.05,3.05,0,0,1,937.71,427.88Zm.06,2a1.46,1.46,0,0,0-1.59,1.56v.82a1.46,1.46,0,0,0,1.58,1.54h1a1.41,1.41,0,0,0,1.48-1.58v-.78a1.4,1.4,0,0,0-1.48-1.56Z"/><path class="cls-5" d="M939.58,425.11V423l4.36,1.22v1.7Z"/><path class="cls-5" d="M937.6,413.05h1.23c1.9,0,3.16,1.41,3.16,3.51v.79c0,2.15-1.26,3.51-3.26,3.51V419a1.47,1.47,0,0,0,1.49-1.65v-.61a1.46,1.46,0,0,0-1.49-1.61h-1a1.48,1.48,0,0,0-1.51,1.66v3.66h-5.92v-6.67H932v4.78h2.43v-2C934.44,414.36,935.7,413.05,937.6,413.05Z"/><path class="cls-5" d="M936.16,396.51h5.66v1.94h-5.46c-.85,0-1.29.46-1.29,1.17V400a1.5,1.5,0,0,0,1.63,1.55h5.12v1.94h-5.46a1.13,1.13,0,0,0-1.29,1.17v.41a1.5,1.5,0,0,0,1.63,1.54h5.12v1.94h-8.3V407l1-.12a2.44,2.44,0,0,1-1.19-2.28v-.3a2.48,2.48,0,0,1,1.26-2.31,2.7,2.7,0,0,1-1.26-2.4v-.37A2.56,2.56,0,0,1,936.16,396.51Z"/><path class="cls-5" d="M937.6,296.48h1.23c1.9,0,3.16,1.41,3.16,3.5v.8c0,2.15-1.26,3.5-3.27,3.5v-1.9a1.47,1.47,0,0,0,1.5-1.65v-.61a1.46,1.46,0,0,0-1.5-1.61h-1a1.49,1.49,0,0,0-1.52,1.66v3.66h-5.91v-6.67H932v4.78h2.43v-2C934.44,297.79,935.7,296.48,937.6,296.48Z"/><path class="cls-5" d="M939.57,294.26v-2.1l4.37,1.23v1.7Z"/><path class="cls-5" d="M937.6,282.2h1.23c1.9,0,3.16,1.41,3.16,3.5v.8c0,2.15-1.26,3.51-3.27,3.51V288.1a1.47,1.47,0,0,0,1.5-1.65v-.61a1.46,1.46,0,0,0-1.5-1.61h-1a1.49,1.49,0,0,0-1.52,1.66v3.66h-5.91v-6.67H932v4.78h2.43v-2C934.44,283.51,935.7,282.2,937.6,282.2Z"/><path class="cls-5" d="M936.16,266h5.66v1.94h-5.46c-.85,0-1.29.46-1.29,1.17v.41a1.5,1.5,0,0,0,1.63,1.55h5.12V273h-5.46a1.13,1.13,0,0,0-1.29,1.17v.41a1.5,1.5,0,0,0,1.63,1.54h5.12v1.94h-8.3v-1.63l1-.12a2.42,2.42,0,0,1-1.19-2.28v-.3a2.48,2.48,0,0,1,1.26-2.31,2.7,2.7,0,0,1-1.26-2.4v-.38A2.55,2.55,0,0,1,936.16,266Z"/><path class="cls-5" d="M933.18,113.86h5.56a3.14,3.14,0,0,1,3.25,3.43v.8c0,2.18-1.24,3.49-3.32,3.49v-2a1.48,1.48,0,0,0,1.55-1.63v-.48a1.49,1.49,0,0,0-1.62-1.63h-1.51a2.63,2.63,0,0,1,.75,1.94v.71a3.06,3.06,0,0,1-3.25,3.27h-1.41c-1.85,0-3.09-1.36-3.09-3.44v-1C930.09,115.25,931.33,113.86,933.18,113.86Zm1.36,2h-1.26a1.41,1.41,0,0,0-1.47,1.58v.77a1.42,1.42,0,0,0,1.47,1.58h1.25a1.48,1.48,0,0,0,1.59-1.58v-.82A1.46,1.46,0,0,0,934.54,115.88Z"/><path class="cls-5" d="M939.57,110.88v-2.09l4.37,1.23v1.7Z"/><path class="cls-5" d="M930.26,103.34h11.56v2h-9.3l1.46,2.18h-2.06l-1.66-2.35Z"/><path class="cls-5" d="M937.6,92.8h1.23c1.9,0,3.16,1.41,3.16,3.5v.8a3.16,3.16,0,0,1-3.27,3.5V98.69a1.47,1.47,0,0,0,1.5-1.64v-.62a1.46,1.46,0,0,0-1.5-1.61h-1a1.49,1.49,0,0,0-1.52,1.66v3.66h-5.91V93.48H932v4.77h2.43v-2C934.44,94.1,935.7,92.8,937.6,92.8Z"/><path class="cls-5" d="M936.16,76.6h5.66v1.93h-5.46a1.13,1.13,0,0,0-1.29,1.18v.4a1.5,1.5,0,0,0,1.63,1.55h5.12V83.6h-5.46a1.13,1.13,0,0,0-1.29,1.17v.41a1.51,1.51,0,0,0,1.63,1.55h5.12v1.93h-8.3V87l1-.12a2.41,2.41,0,0,1-1.19-2.27v-.31A2.48,2.48,0,0,1,934.61,82a2.69,2.69,0,0,1-1.26-2.4v-.37A2.55,2.55,0,0,1,936.16,76.6Z"/><line class="cls-8" x1="841.65" y1="51.02" x2="895.13" y2="51.02"/><rect class="cls-5" x="841.16" y="47.81" width="0.99" height="6.41"/><rect class="cls-5" x="894.64" y="47.81" width="0.99" height="6.41"/><path class="cls-5" d="M857.18,29.74V35.3a3.13,3.13,0,0,1-3.43,3.24H853c-2.17,0-3.48-1.24-3.48-3.31h1.95a1.47,1.47,0,0,0,1.63,1.54h.48a1.48,1.48,0,0,0,1.63-1.61V33.65a2.66,2.66,0,0,1-1.94.74h-.71a3.06,3.06,0,0,1-3.27-3.24V29.74c0-1.86,1.37-3.1,3.44-3.1h1C855.79,26.64,857.18,27.88,857.18,29.74Zm-2,1.36V29.84a1.42,1.42,0,0,0-1.58-1.48h-.77a1.43,1.43,0,0,0-1.58,1.48v1.24a1.48,1.48,0,0,0,1.58,1.6h.82A1.46,1.46,0,0,0,855.16,31.1Z"/><path class="cls-5" d="M860.16,36.13h2.09L861,40.5h-1.7Z"/><path class="cls-5" d="M867.71,26.81V38.37h-2v-9.3l-2.17,1.47V28.48l2.34-1.67Z"/><path class="cls-5" d="M878.25,34.16v1.22c0,1.9-1.42,3.16-3.51,3.16H874c-2.15,0-3.51-1.26-3.51-3.26h1.91A1.47,1.47,0,0,0,874,36.77h.61a1.46,1.46,0,0,0,1.61-1.49v-1a1.49,1.49,0,0,0-1.66-1.51H870.9V26.81h6.67v1.75h-4.78V31h2C876.94,31,878.25,32.25,878.25,34.16Z"/><path class="cls-5" d="M894.45,32.71v5.66h-1.94V32.92c0-.85-.46-1.3-1.17-1.3h-.41a1.51,1.51,0,0,0-1.55,1.64v5.11h-1.94V32.92a1.14,1.14,0,0,0-1.17-1.3h-.41a1.51,1.51,0,0,0-1.54,1.64v5.11h-1.94V30.08H884l.12,1a2.42,2.42,0,0,1,2.28-1.19h.3A2.47,2.47,0,0,1,889,31.16a2.69,2.69,0,0,1,2.4-1.25h.37A2.55,2.55,0,0,1,894.45,32.71Z"/><path class="cls-4" d="M33.35,507.17h8.49A3,3,0,0,1,45,510.35v.93a2.63,2.63,0,0,1-2.7,2.84v-1.8c.68,0,1.12-.41,1.12-1.23v-.51A1.32,1.32,0,0,0,42,509.11H40.39a2.4,2.4,0,0,1,1,2.07v.27a2.94,2.94,0,0,1-3.25,3H36.28a2.85,2.85,0,0,1-3.1-2.91v-.34a2.38,2.38,0,0,1,1.31-2.24l-1.14-.14Zm4.41,1.94h-.92c-1.17,0-2,.56-2,1.58v.39a1.38,1.38,0,0,0,1.57,1.39H38c1,0,1.7-.51,1.7-1.39v-.39C39.71,509.74,39,509.11,37.76,509.11Z"/><path class="cls-4" d="M36.5,497.27h2.16a3.15,3.15,0,0,1,3.16,3.47v.53a3.15,3.15,0,0,1-3.16,3.48H36.5a3.21,3.21,0,0,1-3.32-3.48v-.53A3.21,3.21,0,0,1,36.5,497.27Zm-1.62,3.91a1.53,1.53,0,0,0,1.7,1.62h2a1.45,1.45,0,0,0,1.56-1.62v-.35a1.44,1.44,0,0,0-1.56-1.58h-2a1.51,1.51,0,0,0-1.7,1.58Z"/><path class="cls-4" d="M35.89,488.21h5.76v1.58l-1,.12A2.36,2.36,0,0,1,41.82,492v.56a2.48,2.48,0,0,1-2.5,2.77c-1.61,0-2.57-1.15-2.57-2.92V490.1h-.86c-.7,0-1.07.49-1.07,1.22v.6c0,.78.42,1.21,1.07,1.21V495a2.68,2.68,0,0,1-2.71-2.91v-1A2.65,2.65,0,0,1,35.89,488.21Zm2.84,1.89h-.6v2.33a1,1,0,0,0,1.09,1c.68,0,1.05-.5,1.05-1.23v-.54A1.48,1.48,0,0,0,38.73,490.1Z"/><path class="cls-4" d="M39.22,485.53H29.75v-1.94H39c.8,0,1.12-.29,1.12-.92v-.32h1.7v.9C41.82,484.9,40.85,485.53,39.22,485.53Z"/><path class="cls-4" d="M39.22,476H29.75v-1.93H39c.8,0,1.12-.29,1.12-.92v-.32h1.7v.9C41.82,475.4,40.85,476,39.22,476Z"/><path class="cls-4" d="M30,470.86v-1.94h1.84v1.94Zm3.31,0v-1.94h8.3v1.94Z"/><path class="cls-4" d="M36,458.94h5.66v1.94H36.19a1.13,1.13,0,0,0-1.29,1.17v.49a1.5,1.5,0,0,0,1.63,1.55h5.12V466h-8.3V464.4l1-.12a2.49,2.49,0,0,1-1.21-2.3v-.37A2.56,2.56,0,0,1,36,458.94Z"/><path class="cls-4" d="M38.79,454.67a1.33,1.33,0,0,0,1.5-1.44v-.7a1,1,0,0,0-1-1.17v-1.85c1.53,0,2.57,1.19,2.57,3v.82a3,3,0,0,1-3,3.28H36.5a3.13,3.13,0,0,1-3.32-3.32v-.56a3.07,3.07,0,0,1,3.27-3.26h1.78v5.23Zm-2.29,0h.31v-3.36H36.5c-1.17,0-1.73.59-1.73,1.48v.39C34.77,454.16,35.43,454.67,36.5,454.67Z"/><path class="cls-4" d="M68.37,40V37.88a3.09,3.09,0,0,1,3.35-3.31h.64a2.74,2.74,0,0,1,3,2.82H73.49a1.09,1.09,0,0,0-1.23-1.12H71.8c-1,0-1.48.64-1.48,1.7v2A1.36,1.36,0,0,0,71.8,41.5h.46c.78,0,1.23-.4,1.23-1.07h1.85a2.72,2.72,0,0,1-3,2.77h-.64A3,3,0,0,1,68.37,40Z"/><path class="cls-4" d="M84.72,37.88V40a3.14,3.14,0,0,1-3.46,3.16h-.53c-2.13,0-3.49-1.3-3.49-3.16V37.88a3.22,3.22,0,0,1,3.49-3.31h.53A3.21,3.21,0,0,1,84.72,37.88Zm-3.91-1.61A1.52,1.52,0,0,0,79.2,38v2a1.45,1.45,0,0,0,1.61,1.56h.36a1.44,1.44,0,0,0,1.58-1.56V38a1.51,1.51,0,0,0-1.58-1.7Z"/><path class="cls-4" d="M91.74,34.57v1.82h-1a1.56,1.56,0,0,0-1.64,1.68v5H87.21V34.74h1.63l.12,1a2.46,2.46,0,0,1,2.29-1.21Z"/><path class="cls-4" d="M100.69,37.37V43H98.75V37.58a1.13,1.13,0,0,0-1.17-1.29h-.5a1.5,1.5,0,0,0-1.54,1.63V43H93.6V34.74h1.63l.12,1a2.47,2.47,0,0,1,2.29-1.21H98A2.56,2.56,0,0,1,100.69,37.37Z"/><path class="cls-4" d="M105,40.18a1.33,1.33,0,0,0,1.45,1.49h.69c.77,0,1.18-.42,1.18-1h1.85c0,1.53-1.19,2.56-3,2.56h-.82a3,3,0,0,1-3.28-3V37.88a3.12,3.12,0,0,1,3.31-3.31h.57a3.07,3.07,0,0,1,3.26,3.26v1.79H105Zm0-2.3v.31h3.37v-.31c0-1.17-.6-1.73-1.48-1.73h-.39C105.46,36.15,105,36.81,105,37.88Z"/><path class="cls-4" d="M117.21,34.57v1.82h-1a1.56,1.56,0,0,0-1.63,1.68v5h-1.94V34.74h1.63l.12,1a2.49,2.49,0,0,1,2.3-1.21Z"/><path class="cls-4" d="M126.34,31h1.09v1.61h-.65c-1,0-1.22.48-1.22,1.33v.83h1.7v1.55h-1.7V43h-1.94V36.29h-1V34.74h1v-1C123.62,31.63,124.64,31,126.34,31Zm5.4,10.53v1.7h-.9c-1.65,0-2.27-1-2.27-2.6V31.14h1.93v9.24c0,.8.29,1.12.92,1.12Z"/><path class="cls-4" d="M140.31,37.27V43h-1.58l-.12-1a2.34,2.34,0,0,1-2.11,1.13h-.56a2.48,2.48,0,0,1-2.77-2.49c0-1.62,1.16-2.57,2.93-2.57h2.33v-.87c0-.7-.5-1.07-1.23-1.07h-.59c-.79,0-1.21.43-1.21,1.07h-1.85a2.67,2.67,0,0,1,2.9-2.7h1A2.63,2.63,0,0,1,140.31,37.27Zm-1.88,2.84v-.59H136.1a1,1,0,0,0-1,1.08c0,.68.49,1.06,1.22,1.06h.55A1.48,1.48,0,0,0,138.43,40.11Z"/><path class="cls-4" d="M149.93,34.74v8.48a3,3,0,0,1-3.17,3.13h-.94a2.64,2.64,0,0,1-2.84-2.7h1.8c0,.68.41,1.12,1.23,1.12h.51A1.32,1.32,0,0,0,148,43.36V41.78a2.46,2.46,0,0,1-2.08,1h-.27a3,3,0,0,1-3-3.25V37.66a2.83,2.83,0,0,1,2.9-3.09h.34a2.39,2.39,0,0,1,2.25,1.31l.13-1.14ZM148,39.14v-.92c0-1.17-.56-1.95-1.58-1.95H146a1.37,1.37,0,0,0-1.39,1.56V39.4c0,1,.51,1.7,1.39,1.7h.4C147.37,41.1,148,40.4,148,39.14Z"/><path class="cls-4" d="M160.07,37.66V40a2.94,2.94,0,0,1-3,3.24h-.36a2.4,2.4,0,0,1-2-1v4h-1.94V34.74h1.63l.14,1.14a2.36,2.36,0,0,1,2.22-1.31h.43A2.84,2.84,0,0,1,160.07,37.66Zm-2,.17c0-1-.54-1.56-1.37-1.56h-.48c-1,0-1.56.78-1.56,1.95v1.33c0,1.27.63,2,1.56,2h.48c.88,0,1.37-.68,1.37-1.7Z"/><path class="cls-4" d="M169.65,37.88V40a3.14,3.14,0,0,1-3.46,3.16h-.53c-2.13,0-3.49-1.3-3.49-3.16V37.88a3.22,3.22,0,0,1,3.49-3.31h.53A3.21,3.21,0,0,1,169.65,37.88Zm-3.91-1.61a1.52,1.52,0,0,0-1.61,1.7v2a1.45,1.45,0,0,0,1.61,1.56h.36a1.44,1.44,0,0,0,1.58-1.56V38a1.51,1.51,0,0,0-1.58-1.7Z"/><path class="cls-4" d="M171.63,40.64h1.8c0,.76.53,1,1.34,1h.44c1.11,0,1.57-.44,1.57-1.08s-.56-.92-1.57-1c-2.55-.27-3.43-.82-3.43-2.45S173,34.57,175,34.57h.19c2,0,3.17.87,3.17,2.53h-1.8c0-.76-.56-1-1.37-1H175c-1,0-1.38.37-1.38.95s.47.77,1.77.88c2.34.24,3.24,1,3.24,2.55,0,1.89-1.37,2.72-3.46,2.72h-.34C172.8,43.2,171.63,42.32,171.63,40.64Z"/><path class="cls-4" d="M185.19,41.45V43.2H184c-2.23,0-2.91-.88-2.91-2.56V36.29h-1V34.74h1V32.12h1.94v2.62h1.83v1.55h-1.83v4c0,.92.51,1.19,1.37,1.19Z"/><path class="cls-4" d="M191.18,37.1a11.59,11.59,0,0,1,2.24-7H195a14,14,0,0,0-1.8,7A16.42,16.42,0,0,0,195,44.41h-1.55A13.23,13.23,0,0,1,191.18,37.1Z"/><path class="cls-4" d="M196.63,40V37.88A3.09,3.09,0,0,1,200,34.57h.65a2.73,2.73,0,0,1,3,2.82h-1.85a1.08,1.08,0,0,0-1.22-1.12h-.46c-1,0-1.48.64-1.48,1.7v2c0,1,.47,1.56,1.48,1.56h.46c.78,0,1.22-.4,1.22-1.07h1.85a2.71,2.71,0,0,1-3,2.77H200A3,3,0,0,1,196.63,40Z"/><path class="cls-4" d="M213,37.88V40a3.15,3.15,0,0,1-3.47,3.16H209c-2.12,0-3.48-1.3-3.48-3.16V37.88A3.21,3.21,0,0,1,209,34.57h.53A3.21,3.21,0,0,1,213,37.88Zm-3.91-1.61a1.53,1.53,0,0,0-1.62,1.7v2a1.45,1.45,0,0,0,1.62,1.56h.35A1.44,1.44,0,0,0,211,39.94V38a1.5,1.5,0,0,0-1.58-1.7Z"/><path class="cls-4" d="M227.54,37.37V43H225.6V37.58c0-.85-.46-1.29-1.17-1.29H224a1.5,1.5,0,0,0-1.55,1.63V43h-1.94V37.58a1.13,1.13,0,0,0-1.17-1.29H219a1.5,1.5,0,0,0-1.54,1.63V43h-1.94V34.74h1.63l.12,1a2.42,2.42,0,0,1,2.28-1.19h.3a2.5,2.5,0,0,1,2.32,1.26,2.65,2.65,0,0,1,2.39-1.26h.38A2.55,2.55,0,0,1,227.54,37.37Z"/><path class="cls-4" d="M237.62,37.66V40a2.94,2.94,0,0,1-3,3.24h-.35a2.42,2.42,0,0,1-2.06-1v4h-1.94V34.74h1.63l.14,1.14a2.36,2.36,0,0,1,2.23-1.31h.42A2.84,2.84,0,0,1,237.62,37.66Zm-2,.17c0-1-.55-1.56-1.38-1.56h-.48c-1,0-1.56.78-1.56,1.95v1.33c0,1.27.63,2,1.56,2h.48c.88,0,1.38-.68,1.38-1.7Z"/><path class="cls-4" d="M247.07,34.74V43h-1.63l-.12-1A2.47,2.47,0,0,1,243,43.2h-.38A2.55,2.55,0,0,1,240,40.4V34.74h1.94V40.2c0,.85.46,1.29,1.17,1.29h.49a1.49,1.49,0,0,0,1.53-1.63V34.74Z"/><path class="cls-4" d="M249.91,40.6V31.14h1.94v9.24c0,.8.29,1.12.92,1.12h.32v1.7h-.9C250.54,43.2,249.91,42.24,249.91,40.6Z"/><path class="cls-4" d="M254.7,40.64h1.81c0,.76.52,1,1.34,1h.44c1.11,0,1.56-.44,1.56-1.08s-.56-.92-1.56-1c-2.55-.27-3.43-.82-3.43-2.45s1.25-2.53,3.18-2.53h.18c2,0,3.18.87,3.18,2.53h-1.8c0-.76-.56-1-1.38-1h-.17c-1,0-1.37.37-1.37.95s.47.77,1.76.88c2.35.24,3.25,1,3.25,2.55,0,1.89-1.38,2.72-3.47,2.72h-.34C255.88,43.2,254.7,42.32,254.7,40.64Z"/><path class="cls-4" d="M271.19,37.88V40a3.14,3.14,0,0,1-3.46,3.16h-.53c-2.13,0-3.49-1.3-3.49-3.16V37.88a3.22,3.22,0,0,1,3.49-3.31h.53A3.21,3.21,0,0,1,271.19,37.88Zm-3.91-1.61a1.52,1.52,0,0,0-1.61,1.7v2a1.45,1.45,0,0,0,1.61,1.56h.36a1.44,1.44,0,0,0,1.58-1.56V38a1.51,1.51,0,0,0-1.58-1.7Z"/><path class="cls-4" d="M278.21,34.57v1.82h-1a1.56,1.56,0,0,0-1.64,1.68v5h-1.93V34.74h1.63l.12,1a2.46,2.46,0,0,1,2.29-1.21Z"/><path class="cls-4" d="M287.56,34.74l-3.87,10a2.28,2.28,0,0,1-2.35,1.61h-.92v-1.6h.82a1,1,0,0,0,1.05-.73l.38-1.1-3.2-8.16h2.08l1.07,3c.3.87.63,1.86.95,2.89.31-1,.61-2,.92-2.87l1-3Z"/><path class="cls-4" d="M290.45,37.07a14,14,0,0,0-1.81-6.95h1.53a11.66,11.66,0,0,1,2.24,7,13.23,13.23,0,0,1-2.24,7.31h-1.55A16.57,16.57,0,0,0,290.45,37.07Z"/><path class="cls-4" d="M202.93,667.72v1.76h-1.16c-2.23,0-2.91-.89-2.91-2.57v-4.35h-1.05V661h1.05v-2.62h1.94V661h1.84v1.55H200.8v4c0,.92.51,1.19,1.38,1.19Z"/><path class="cls-4" d="M212,664.16v2.15a3.15,3.15,0,0,1-3.47,3.17H208a3.16,3.16,0,0,1-3.48-3.17v-2.15a3.21,3.21,0,0,1,3.48-3.32h.53A3.21,3.21,0,0,1,212,664.16Zm-3.91-1.62a1.53,1.53,0,0,0-1.62,1.7v2a1.46,1.46,0,0,0,1.62,1.57h.35a1.44,1.44,0,0,0,1.58-1.57v-2a1.5,1.5,0,0,0-1.58-1.7Z"/><path class="cls-4" d="M221.42,661v8.3h-1.63l-.12-1a2.47,2.47,0,0,1-2.29,1.21H217a2.55,2.55,0,0,1-2.65-2.81V661h1.94v5.46c0,.85.46,1.29,1.17,1.29H218a1.49,1.49,0,0,0,1.53-1.63V661Z"/><path class="cls-4" d="M223.94,666.31v-2.15a3.09,3.09,0,0,1,3.35-3.32h.64a2.74,2.74,0,0,1,3,2.82h-1.86a1.08,1.08,0,0,0-1.22-1.12h-.46c-1,0-1.48.65-1.48,1.7v2c0,1,.48,1.57,1.48,1.57h.46c.78,0,1.22-.41,1.22-1.08h1.86a2.72,2.72,0,0,1-3,2.78h-.64A3,3,0,0,1,223.94,666.31Z"/><path class="cls-4" d="M240.29,663.65v5.66h-1.94v-5.46a1.13,1.13,0,0,0-1.17-1.29h-.49c-.94,0-1.55.74-1.55,1.87v4.88H233.2v-11.9h1.94v4.5a2.37,2.37,0,0,1,2.11-1.07h.37A2.55,2.55,0,0,1,240.29,663.65Z"/><path class="cls-4" d="M243,666.87v-9.46h1.94v9.24c0,.8.28,1.13.91,1.13h.33v1.7h-.9C243.61,669.48,243,668.51,243,666.87Z"/><path class="cls-4" d="M248.15,657.7h1.93v1.83h-1.93Zm0,3.31h1.93v8.3h-1.93Z"/><path class="cls-4" d="M260.06,663.65v5.66h-1.94v-5.46a1.13,1.13,0,0,0-1.17-1.29h-.49a1.5,1.5,0,0,0-1.55,1.63v5.12H253V661h1.63l.12,1a2.49,2.49,0,0,1,2.3-1.21h.37A2.55,2.55,0,0,1,260.06,663.65Z"/><path class="cls-4" d="M264.33,666.45a1.33,1.33,0,0,0,1.44,1.5h.7c.77,0,1.17-.43,1.17-1h1.86c0,1.53-1.19,2.57-3,2.57h-.81a3,3,0,0,1-3.28-3v-2.31a3.12,3.12,0,0,1,3.31-3.32h.56a3.07,3.07,0,0,1,3.26,3.26v1.79h-5.23Zm0-2.29v.3h3.36v-.3c0-1.18-.59-1.74-1.47-1.74h-.4C264.84,662.42,264.33,663.08,264.33,664.16Z"/><path class="cls-4" d="M504.94,31H506v1.61h-.65c-1,0-1.22.48-1.22,1.33v.83h1.7v1.55h-1.7V43h-1.94V36.29h-1V34.74h1v-1C502.22,31.63,503.24,31,504.94,31Zm5.4,10.53v1.7h-.9c-1.65,0-2.27-1-2.27-2.6V31.14h1.93v9.24c0,.8.29,1.12.92,1.12Z"/><path class="cls-4" d="M518.91,37.27V43h-1.58l-.12-1a2.32,2.32,0,0,1-2.1,1.13h-.57a2.48,2.48,0,0,1-2.77-2.49c0-1.62,1.16-2.57,2.93-2.57H517v-.87c0-.7-.5-1.07-1.23-1.07h-.59c-.78,0-1.21.43-1.21,1.07h-1.85a2.67,2.67,0,0,1,2.9-2.7h1A2.63,2.63,0,0,1,518.91,37.27ZM517,40.11v-.59H514.7a1,1,0,0,0-1,1.08c0,.68.49,1.06,1.22,1.06h.55A1.48,1.48,0,0,0,517,40.11Z"/><path class="cls-4" d="M528.53,34.74v8.48a3,3,0,0,1-3.17,3.13h-.94a2.64,2.64,0,0,1-2.84-2.7h1.8c0,.68.41,1.12,1.23,1.12h.51a1.32,1.32,0,0,0,1.48-1.41V41.78a2.46,2.46,0,0,1-2.08,1h-.27a3,3,0,0,1-3-3.25V37.66a2.83,2.83,0,0,1,2.9-3.09h.34a2.39,2.39,0,0,1,2.25,1.31l.13-1.14Zm-1.93,4.4v-.92c0-1.17-.56-1.95-1.58-1.95h-.4a1.37,1.37,0,0,0-1.39,1.56V39.4c0,1,.51,1.7,1.39,1.7h.4C526,41.1,526.6,40.4,526.6,39.14Z"/><path class="cls-4" d="M538.67,37.66V40a2.94,2.94,0,0,1-3,3.24h-.36a2.4,2.4,0,0,1-2.05-1v4h-1.94V34.74H533l.14,1.14a2.36,2.36,0,0,1,2.22-1.31h.43A2.84,2.84,0,0,1,538.67,37.66Zm-2,.17c0-1-.55-1.56-1.38-1.56h-.48c-1,0-1.56.78-1.56,1.95v1.33c0,1.27.63,2,1.56,2h.48c.88,0,1.38-.68,1.38-1.7Z"/><path class="cls-4" d="M548.25,37.88V40a3.14,3.14,0,0,1-3.46,3.16h-.53c-2.13,0-3.48-1.3-3.48-3.16V37.88a3.21,3.21,0,0,1,3.48-3.31h.53A3.21,3.21,0,0,1,548.25,37.88Zm-3.91-1.61a1.52,1.52,0,0,0-1.61,1.7v2a1.45,1.45,0,0,0,1.61,1.56h.36a1.44,1.44,0,0,0,1.58-1.56V38a1.51,1.51,0,0,0-1.58-1.7Z"/><path class="cls-4" d="M550.23,40.64H552c0,.76.53,1,1.34,1h.44c1.11,0,1.57-.44,1.57-1.08s-.56-.92-1.57-1c-2.55-.27-3.43-.82-3.43-2.45s1.26-2.53,3.18-2.53h.19c2,0,3.17.87,3.17,2.53h-1.8c0-.76-.56-1-1.37-1h-.17c-1,0-1.38.37-1.38.95s.47.77,1.77.88c2.34.24,3.24,1,3.24,2.55,0,1.89-1.37,2.72-3.46,2.72h-.34C551.4,43.2,550.23,42.32,550.23,40.64Z"/><path class="cls-4" d="M563.79,41.45V43.2h-1.15c-2.23,0-2.91-.88-2.91-2.56V36.29h-1.05V34.74h1.05V32.12h1.94v2.62h1.83v1.55h-1.83v4c0,.92.51,1.19,1.37,1.19Z"/><path class="cls-4" d="M569.78,37.1a11.59,11.59,0,0,1,2.24-7h1.53a14,14,0,0,0-1.8,7,16.42,16.42,0,0,0,1.82,7.34H572A13.23,13.23,0,0,1,569.78,37.1Z"/><path class="cls-4" d="M582.71,37.88V40a3.15,3.15,0,0,1-3.47,3.16h-.52c-2.13,0-3.49-1.3-3.49-3.16V37.88a3.22,3.22,0,0,1,3.49-3.31h.52A3.21,3.21,0,0,1,582.71,37.88Zm-3.91-1.61a1.52,1.52,0,0,0-1.61,1.7v2a1.45,1.45,0,0,0,1.61,1.56h.36a1.44,1.44,0,0,0,1.58-1.56V38a1.51,1.51,0,0,0-1.58-1.7Z"/><path class="cls-4" d="M592.52,37.66V40a2.94,2.94,0,0,1-3,3.24h-.36a2.42,2.42,0,0,1-2.06-1v4H585.2V34.74h1.63l.13,1.14a2.36,2.36,0,0,1,2.23-1.31h.42A2.83,2.83,0,0,1,592.52,37.66Zm-2,.17c0-1-.54-1.56-1.38-1.56h-.47c-1,0-1.57.78-1.57,1.95v1.33c0,1.27.63,2,1.57,2h.47c.89,0,1.38-.68,1.38-1.7Z"/><path class="cls-4" d="M599.19,41.45V43.2H598c-2.23,0-2.91-.88-2.91-2.56V36.29h-1V34.74h1V32.12h1.94v2.62h1.84v1.55h-1.84v4c0,.92.51,1.19,1.38,1.19Z"/><path class="cls-4" d="M601.16,31.42h1.94v1.84h-1.94Zm0,3.32h1.94V43h-1.94Z"/><path class="cls-4" d="M613.07,37.88V40a3.14,3.14,0,0,1-3.46,3.16h-.53c-2.13,0-3.48-1.3-3.48-3.16V37.88a3.21,3.21,0,0,1,3.48-3.31h.53A3.21,3.21,0,0,1,613.07,37.88Zm-3.91-1.61a1.52,1.52,0,0,0-1.61,1.7v2a1.45,1.45,0,0,0,1.61,1.56h.36a1.44,1.44,0,0,0,1.58-1.56V38a1.51,1.51,0,0,0-1.58-1.7Z"/><path class="cls-4" d="M622.65,37.37V43h-1.94V37.58a1.14,1.14,0,0,0-1.18-1.29H619a1.51,1.51,0,0,0-1.55,1.63V43h-1.93V34.74h1.63l.12,1a2.47,2.47,0,0,1,2.29-1.21H620A2.56,2.56,0,0,1,622.65,37.37Z"/><path class="cls-4" d="M632,37.27V43H630.4l-.12-1a2.34,2.34,0,0,1-2.11,1.13h-.56a2.47,2.47,0,0,1-2.77-2.49c0-1.62,1.15-2.57,2.92-2.57h2.33v-.87c0-.7-.49-1.07-1.22-1.07h-.6c-.78,0-1.2.43-1.2,1.07h-1.86a2.67,2.67,0,0,1,2.91-2.7h1A2.64,2.64,0,0,1,632,37.27Zm-1.89,2.84v-.59h-2.33a1,1,0,0,0-1,1.08c0,.68.49,1.06,1.22,1.06h.54A1.48,1.48,0,0,0,630.09,40.11Z"/><path class="cls-4" d="M634.66,40.6V31.14h1.94v9.24c0,.8.29,1.12.92,1.12h.32v1.7h-.9C635.29,43.2,634.66,42.24,634.66,40.6Z"/><path class="cls-4" d="M640.84,37.07A14,14,0,0,0,639,30.12h1.53a11.66,11.66,0,0,1,2.24,7,13.23,13.23,0,0,1-2.24,7.31H639A16.58,16.58,0,0,0,640.84,37.07Z"/><path class="cls-4" d="M122.48,343.65H131a3,3,0,0,1,3.12,3.18v.93a2.63,2.63,0,0,1-2.7,2.84v-1.8c.68,0,1.12-.41,1.12-1.23v-.51a1.32,1.32,0,0,0-1.41-1.47h-1.58a2.4,2.4,0,0,1,1,2.07v.27a2.94,2.94,0,0,1-3.25,3h-1.88a2.84,2.84,0,0,1-3.1-2.91v-.34a2.38,2.38,0,0,1,1.31-2.24l-1.14-.14Zm4.41,1.94H126c-1.18,0-2,.56-2,1.58v.39c0,.83.56,1.39,1.57,1.39h1.56c1,0,1.7-.51,1.7-1.39v-.39C128.84,346.21,128.14,345.59,126.89,345.59Z"/><path class="cls-4" d="M125.63,333.75h2.16a3.15,3.15,0,0,1,3.16,3.47v.53a3.15,3.15,0,0,1-3.16,3.48h-2.16a3.21,3.21,0,0,1-3.32-3.48v-.53A3.21,3.21,0,0,1,125.63,333.75ZM124,337.66a1.53,1.53,0,0,0,1.7,1.62h2a1.46,1.46,0,0,0,1.57-1.62v-.35a1.44,1.44,0,0,0-1.57-1.58h-2a1.51,1.51,0,0,0-1.7,1.58Z"/><path class="cls-4" d="M125,324.69h5.76v1.58l-1,.12A2.36,2.36,0,0,1,131,328.5v.56a2.48,2.48,0,0,1-2.5,2.77c-1.62,0-2.57-1.15-2.57-2.92v-2.33H125c-.7,0-1.07.49-1.07,1.22v.6c0,.78.42,1.21,1.07,1.21v1.85a2.68,2.68,0,0,1-2.71-2.91v-1A2.65,2.65,0,0,1,125,324.69Zm2.83,1.89h-.59v2.33a1,1,0,0,0,1.09,1c.68,0,1.05-.5,1.05-1.23v-.54A1.48,1.48,0,0,0,127.85,326.58Z"/><path class="cls-4" d="M128.35,322h-9.47v-1.94h9.25c.8,0,1.12-.29,1.12-.92v-.32H131v.9C131,321.38,130,322,128.35,322Z"/><path class="cls-4" d="M125,305.86h5.76v1.58l-1,.12a2.35,2.35,0,0,1,1.14,2.11v.56a2.48,2.48,0,0,1-2.5,2.77c-1.62,0-2.57-1.16-2.57-2.93v-2.33H125c-.7,0-1.07.5-1.07,1.23v.59c0,.78.42,1.21,1.07,1.21v1.85a2.67,2.67,0,0,1-2.71-2.9v-1A2.64,2.64,0,0,1,125,305.86Zm2.83,1.88h-.59v2.33a1,1,0,0,0,1.09,1c.68,0,1.05-.49,1.05-1.22v-.55A1.48,1.48,0,0,0,127.85,307.74Z"/><path class="cls-4" d="M122.31,298.56h1.82v1a1.56,1.56,0,0,0,1.68,1.64h5v1.93h-8.3v-1.63l1-.12a2.47,2.47,0,0,1-1.21-2.29Z"/><path class="cls-4" d="M127.92,295.28a1.33,1.33,0,0,0,1.5-1.44v-.7a1,1,0,0,0-1-1.17v-1.85c1.53,0,2.57,1.19,2.57,3v.82a3,3,0,0,1-3,3.28h-2.31a3.13,3.13,0,0,1-3.32-3.32v-.56a3.07,3.07,0,0,1,3.27-3.26h1.78v5.23Zm-2.29,0h.3v-3.36h-.3c-1.18,0-1.74.59-1.74,1.48v.39C123.89,294.77,124.56,295.28,125.63,295.28Z"/><path class="cls-4" d="M125,281h5.76v1.58l-1,.12a2.33,2.33,0,0,1,1.14,2.1v.57a2.48,2.48,0,0,1-2.5,2.77c-1.62,0-2.57-1.16-2.57-2.93v-2.33H125c-.7,0-1.07.5-1.07,1.23v.59c0,.78.42,1.21,1.07,1.21v1.85a2.67,2.67,0,0,1-2.71-2.9v-1A2.64,2.64,0,0,1,125,281Zm2.83,1.88h-.59v2.33a1,1,0,0,0,1.09,1c.68,0,1.05-.49,1.05-1.22v-.55A1.48,1.48,0,0,0,127.85,282.87Z"/><path class="cls-4" d="M84.25,174.69H82.09a3.09,3.09,0,0,1-3.31-3.35v-.65a2.73,2.73,0,0,1,2.82-3v1.85a1.08,1.08,0,0,0-1.12,1.22v.46c0,1,.64,1.48,1.7,1.48h2a1.36,1.36,0,0,0,1.56-1.48v-.46c0-.78-.4-1.22-1.07-1.22v-1.85a2.71,2.71,0,0,1,2.77,3v.65A3,3,0,0,1,84.25,174.69Z"/><path class="cls-4" d="M82.09,158.33h2.16a3.15,3.15,0,0,1,3.16,3.47v.53a3.15,3.15,0,0,1-3.16,3.48H82.09a3.21,3.21,0,0,1-3.31-3.48v-.53A3.21,3.21,0,0,1,82.09,158.33Zm-1.61,3.91a1.53,1.53,0,0,0,1.7,1.62h2a1.45,1.45,0,0,0,1.56-1.62v-.36a1.45,1.45,0,0,0-1.56-1.58h-2a1.51,1.51,0,0,0-1.7,1.58Z"/><path class="cls-4" d="M78.78,151.31H80.6v1a1.56,1.56,0,0,0,1.68,1.63h5v1.94H79v-1.63l1-.12a2.49,2.49,0,0,1-1.21-2.3Z"/><path class="cls-4" d="M81.58,142.37h5.66v1.94H81.79a1.14,1.14,0,0,0-1.3,1.17V146a1.51,1.51,0,0,0,1.64,1.55h5.11v1.94H79v-1.63l1-.12a2.49,2.49,0,0,1-1.21-2.3V145A2.55,2.55,0,0,1,81.58,142.37Z"/><path class="cls-4" d="M84.39,138.1a1.33,1.33,0,0,0,1.49-1.44V136c0-.76-.42-1.17-1-1.17v-1.86c1.53,0,2.56,1.19,2.56,3v.81a3,3,0,0,1-3,3.29H82.09a3.13,3.13,0,0,1-3.31-3.32v-.56A3.07,3.07,0,0,1,82,132.87h1.79v5.23Zm-2.3,0h.31v-3.36h-.31c-1.17,0-1.73.59-1.73,1.47v.4C80.36,137.59,81,138.1,82.09,138.1Z"/><path class="cls-4" d="M78.78,125.84H80.6v1a1.56,1.56,0,0,0,1.68,1.64h5v1.93H79v-1.63l1-.12a2.47,2.47,0,0,1-1.21-2.29Z"/><path class="cls-4" d="M81.48,113h5.76v1.58l-1,.12a2.33,2.33,0,0,1,1.14,2.11v.56a2.48,2.48,0,0,1-2.5,2.77c-1.61,0-2.56-1.16-2.56-2.92V114.9h-.87c-.7,0-1.07.49-1.07,1.22v.6c0,.78.42,1.2,1.07,1.2v1.86a2.67,2.67,0,0,1-2.7-2.91v-1A2.64,2.64,0,0,1,81.48,113Zm2.84,1.89h-.6v2.33a1,1,0,0,0,1.09,1c.68,0,1.06-.49,1.06-1.22v-.55A1.48,1.48,0,0,0,84.32,114.9Z"/><path class="cls-4" d="M78.78,105.72H80.6v1a1.56,1.56,0,0,0,1.68,1.63h5v1.94H79v-1.64l1-.11a2.49,2.49,0,0,1-1.21-2.3Z"/><path class="cls-4" d="M84.39,102.44A1.33,1.33,0,0,0,85.88,101v-.7c0-.76-.42-1.17-1-1.17V97.27c1.53,0,2.56,1.19,2.56,3v.82a3,3,0,0,1-3,3.28H82.09A3.12,3.12,0,0,1,78.78,101v-.57A3.07,3.07,0,0,1,82,97.2h1.79v5.24Zm-2.3,0h.31V99.07h-.31c-1.17,0-1.73.6-1.73,1.48v.39C80.36,101.93,81,102.44,82.09,102.44Z"/><path class="cls-4" d="M81.48,88.14h5.76v1.58l-1,.12A2.33,2.33,0,0,1,87.41,92v.56a2.48,2.48,0,0,1-2.5,2.77c-1.61,0-2.56-1.16-2.56-2.92V90h-.87c-.7,0-1.07.49-1.07,1.22v.6c0,.78.42,1.2,1.07,1.2v1.86A2.67,2.67,0,0,1,78.78,92V91A2.64,2.64,0,0,1,81.48,88.14ZM84.32,90h-.6v2.33a1,1,0,0,0,1.09,1c.68,0,1.06-.49,1.06-1.22v-.55A1.48,1.48,0,0,0,84.32,90Z"/><path class="cls-4" d="M502.89,172.76h5.66v1.94h-5.46a1.14,1.14,0,0,0-1.29,1.18v.49c0,.93.75,1.54,1.87,1.54h4.88v1.94h-11.9v-1.94h4.5a2.34,2.34,0,0,1-1.07-2.1v-.38A2.56,2.56,0,0,1,502.89,172.76Z"/><path class="cls-4" d="M502.79,163.43h5.76V165l-1,.12a2.35,2.35,0,0,1,1.14,2.11v.56a2.48,2.48,0,0,1-2.5,2.77c-1.61,0-2.57-1.16-2.57-2.92v-2.33h-.86c-.7,0-1.07.49-1.07,1.22v.6c0,.78.42,1.2,1.07,1.2v1.86a2.68,2.68,0,0,1-2.71-2.91v-1A2.65,2.65,0,0,1,502.79,163.43Zm2.83,1.89H505v2.33a1,1,0,0,0,1.09,1c.68,0,1.05-.49,1.05-1.22v-.54A1.48,1.48,0,0,0,505.62,165.32Z"/><path class="cls-4" d="M506.12,160.74h-9.47v-1.93h9.25c.8,0,1.12-.29,1.12-.92v-.32h1.7v.9C508.72,160.12,507.75,160.74,506.12,160.74Z"/><path class="cls-4" d="M499.42,153.72h.83V152h1.55v1.7h6.75v1.94H501.8v1h-1.55v-1h-.95c-2.16,0-2.82-1-2.82-2.72v-1.09h1.62v.65C498.1,153.49,498.57,153.72,499.42,153.72Z"/><path class="cls-4" d="M500.25,138.6l8.3,2.66v1.64l-3.23,1c-.83.27-1.75.55-2.69.82.94.27,1.86.56,2.71.83l3.21,1v1.68l-8.3,2.67v-2l2.95-.79c1-.25,2.08-.51,3.16-.74l-3.13-.92-3-.9V144l2.84-.85c1.06-.32,2.16-.65,3.25-.95l-3.2-.75-2.89-.77Z"/><path class="cls-4" d="M502.79,130.32h5.76v1.58l-1,.12a2.33,2.33,0,0,1,1.14,2.1v.56a2.49,2.49,0,0,1-2.5,2.78c-1.61,0-2.57-1.16-2.57-2.93V132.2h-.86c-.7,0-1.07.5-1.07,1.23V134c0,.78.42,1.21,1.07,1.21v1.85a2.68,2.68,0,0,1-2.71-2.91v-1A2.64,2.64,0,0,1,502.79,130.32Zm2.83,1.88H505v2.33a1,1,0,0,0,1.09,1c.68,0,1.05-.49,1.05-1.23v-.54A1.48,1.48,0,0,0,505.62,132.2Z"/><path class="cls-4" d="M500.25,120.68l10,3.87a2.29,2.29,0,0,1,1.62,2.35v.92h-1.6V127a1,1,0,0,0-.73-1l-1.11-.38-8.16,3.2v-2.08l3-1.07c.87-.3,1.85-.63,2.89-1-1-.3-2-.61-2.87-.92l-3-1Z"/><path class="cls-4" d="M506.12,114.45h-9.47v-1.93h9.25c.8,0,1.12-.29,1.12-.92v-.32h1.7v.9C508.72,113.83,507.75,114.45,506.12,114.45Z"/><path class="cls-4" d="M496.94,109.29v-1.94h1.84v1.94Zm3.31,0v-1.94h8.3v1.94Z"/><path class="cls-4" d="M502.89,97.37h5.66v1.94h-5.46a1.13,1.13,0,0,0-1.29,1.17V101a1.5,1.5,0,0,0,1.63,1.55h5.12v1.94h-8.3v-1.63l1-.12a2.49,2.49,0,0,1-1.21-2.3V100A2.56,2.56,0,0,1,502.89,97.37Z"/><path class="cls-4" d="M505.69,93.1a1.33,1.33,0,0,0,1.5-1.44V91a1,1,0,0,0-1-1.17V87.94c1.53,0,2.57,1.19,2.57,3v.82a3,3,0,0,1-3,3.28H503.4a3.13,3.13,0,0,1-3.32-3.32v-.56a3.07,3.07,0,0,1,3.27-3.26h1.78V93.1Zm-2.29,0h.3V89.74h-.3c-1.17,0-1.74.59-1.74,1.48v.39C501.66,92.59,502.33,93.1,503.4,93.1Z"/><path class="cls-4" d="M806.47,137.73h2.16a3.15,3.15,0,0,1,3.16,3.47v.53a3.15,3.15,0,0,1-3.16,3.48h-2.16a3.21,3.21,0,0,1-3.31-3.48v-.53A3.21,3.21,0,0,1,806.47,137.73Zm-1.61,3.91a1.52,1.52,0,0,0,1.7,1.62h2a1.45,1.45,0,0,0,1.56-1.62v-.35a1.44,1.44,0,0,0-1.56-1.58h-2a1.5,1.5,0,0,0-1.7,1.58Z"/><path class="cls-4" d="M806.25,128.61h2.29a2.94,2.94,0,0,1,3.25,3v.36a2.4,2.4,0,0,1-1,2.05h4v1.94H803.33V134.3l1.13-.14a2.36,2.36,0,0,1-1.3-2.22v-.43A2.83,2.83,0,0,1,806.25,128.61Zm.17,2c-1,0-1.56.54-1.56,1.37v.48c0,1,.78,1.56,1.95,1.56h1.33c1.27,0,2-.63,2-1.56V132c0-.88-.68-1.37-1.7-1.37Z"/><path class="cls-4" d="M810,122.62h1.75v1.16c0,2.22-.88,2.9-2.57,2.9h-4.35v1.06h-1.54v-1.06h-2.62v-1.93h2.62v-1.84h1.54v1.84h4c.92,0,1.19-.51,1.19-1.38Z"/><path class="cls-4" d="M800,121.33v-1.94h1.84v1.94Zm3.32,0v-1.94h8.29v1.94Z"/><path class="cls-4" d="M806.47,110.09h2.16a3.15,3.15,0,0,1,3.16,3.47v.53a3.15,3.15,0,0,1-3.16,3.48h-2.16a3.21,3.21,0,0,1-3.31-3.48v-.53A3.21,3.21,0,0,1,806.47,110.09ZM804.86,114a1.52,1.52,0,0,0,1.7,1.62h2a1.45,1.45,0,0,0,1.56-1.62v-.35a1.45,1.45,0,0,0-1.56-1.59h-2a1.51,1.51,0,0,0-1.7,1.59Z"/><path class="cls-4" d="M806,101.2h5.66v1.94h-5.46a1.13,1.13,0,0,0-1.29,1.17v.5a1.5,1.5,0,0,0,1.63,1.54h5.12v1.94h-8.29v-1.63l1-.12a2.47,2.47,0,0,1-1.2-2.3v-.37A2.55,2.55,0,0,1,806,101.2Z"/><path class="cls-4" d="M805.86,92.55h5.76v1.58l-1,.12a2.33,2.33,0,0,1,1.14,2.11v.56a2.48,2.48,0,0,1-2.5,2.77c-1.61,0-2.56-1.16-2.56-2.93V94.44h-.87c-.7,0-1.07.49-1.07,1.22v.59c0,.79.42,1.21,1.07,1.21v1.85a2.67,2.67,0,0,1-2.7-2.9v-1A2.63,2.63,0,0,1,805.86,92.55Zm2.84,1.89h-.6v2.32a1,1,0,0,0,1.09,1c.68,0,1-.49,1-1.22V96A1.47,1.47,0,0,0,808.7,94.44Z"/><path class="cls-4" d="M809.19,90.54h-9.47V88.6H809c.8,0,1.12-.28,1.12-.91v-.33h1.7v.9C811.79,89.91,810.82,90.54,809.19,90.54Z"/><path class="cls-4" d="M824,111.15h5.66v1.93h-5.46a1.13,1.13,0,0,0-1.29,1.18v.41a1.5,1.5,0,0,0,1.63,1.54h5.12v1.94h-5.46a1.13,1.13,0,0,0-1.29,1.17v.41a1.5,1.5,0,0,0,1.63,1.55h5.12v1.94h-8.29v-1.64l1-.11a2.43,2.43,0,0,1-1.19-2.28v-.31a2.47,2.47,0,0,1,1.25-2.31,2.68,2.68,0,0,1-1.25-2.4v-.37A2.55,2.55,0,0,1,824,111.15Z"/><path class="cls-4" d="M823.86,102.49h5.76v1.58l-1,.12a2.34,2.34,0,0,1,1.14,2.11v.56a2.48,2.48,0,0,1-2.5,2.77c-1.61,0-2.56-1.15-2.56-2.92v-2.33h-.87c-.7,0-1.07.49-1.07,1.22v.6c0,.78.42,1.21,1.07,1.21v1.85a2.67,2.67,0,0,1-2.7-2.91v-1A2.64,2.64,0,0,1,823.86,102.49Zm2.84,1.89h-.6v2.33a1,1,0,0,0,1.09,1c.68,0,1-.5,1-1.23V106A1.48,1.48,0,0,0,826.7,104.38Z"/><path class="cls-4" d="M821.16,95.88H823v1a1.56,1.56,0,0,0,1.69,1.63h5v1.94h-8.29V98.79l1-.12a2.48,2.48,0,0,1-1.2-2.3Z"/><path class="cls-4" d="M825.86,91.49l1.48,1.28h2.28v1.94h-11.9V92.77H825l-3.63-2.91V87.6l3.21,2.76,5.08-3.13v2.12Z"/><path class="cls-4" d="M214.61,274.48h2.3a2.94,2.94,0,0,1,3.24,3v.36a2.4,2.4,0,0,1-1,2.05h4v1.94H211.69v-1.63l1.14-.14a2.35,2.35,0,0,1-1.31-2.22v-.43A2.83,2.83,0,0,1,214.61,274.48Zm.17,2c-1,0-1.56.54-1.56,1.37v.48c0,1,.78,1.56,1.95,1.56h1.33c1.28,0,2-.62,2-1.56v-.48c0-.88-.68-1.37-1.7-1.37Z"/><path class="cls-4" d="M217.13,270.46a1.33,1.33,0,0,0,1.5-1.44v-.7a1,1,0,0,0-1-1.17V265.3c1.53,0,2.56,1.19,2.56,3v.82a3,3,0,0,1-3,3.28h-2.32a3.13,3.13,0,0,1-3.31-3.32v-.56a3.07,3.07,0,0,1,3.26-3.26h1.79v5.23Zm-2.3,0h.31V267.1h-.31c-1.17,0-1.73.59-1.73,1.48V269C213.1,270,213.76,270.46,214.83,270.46Z"/><path class="cls-4" d="M214.32,255.66H220v1.93h-5.46a1.14,1.14,0,0,0-1.29,1.18v.49a1.5,1.5,0,0,0,1.63,1.55H220v1.93h-8.3v-1.63l1-.12a2.46,2.46,0,0,1-1.21-2.29v-.37A2.55,2.55,0,0,1,214.32,255.66Z"/><path class="cls-4" d="M214.22,246.32H220v1.59l-1,.11a2.35,2.35,0,0,1,1.13,2.11v.56a2.47,2.47,0,0,1-2.49,2.77c-1.62,0-2.57-1.15-2.57-2.92v-2.33h-.87c-.69,0-1.07.49-1.07,1.22v.6c0,.78.43,1.21,1.07,1.21v1.85a2.67,2.67,0,0,1-2.7-2.91v-1A2.64,2.64,0,0,1,214.22,246.32Zm2.84,1.89h-.59v2.33a1,1,0,0,0,1.08,1c.68,0,1.06-.5,1.06-1.23v-.54A1.48,1.48,0,0,0,217.06,248.21Z"/><path class="cls-4" d="M217.55,243.64h-9.46V241.7h9.24c.8,0,1.13-.29,1.13-.92v-.32h1.69v.9C220.15,243,219.19,243.64,217.55,243.64Z"/><path class="cls-4" d="M218.4,234.42h1.75v1.16c0,2.23-.88,2.91-2.56,2.91h-4.35v1h-1.55v-1h-2.62v-1.94h2.62v-1.84h1.55v1.84h4c.92,0,1.19-.51,1.19-1.38Z"/><path class="cls-4" d="M211.69,225.36l10,3.88a2.27,2.27,0,0,1,1.61,2.34v.92h-1.6v-.81a1,1,0,0,0-.73-1.06l-1.1-.37-8.16,3.19v-2.07l3-1.07c.87-.31,1.86-.63,2.89-.95-1-.31-2-.61-2.87-.92l-3-1Z"/><path class="cls-4" d="M214.22,212.49H220v1.59l-1,.11a2.35,2.35,0,0,1,1.13,2.11v.56a2.47,2.47,0,0,1-2.49,2.77c-1.62,0-2.57-1.15-2.57-2.92v-2.33h-.87c-.69,0-1.07.49-1.07,1.23v.59c0,.78.43,1.21,1.07,1.21v1.85a2.67,2.67,0,0,1-2.7-2.91v-1A2.64,2.64,0,0,1,214.22,212.49Zm2.84,1.89h-.59v2.33a1,1,0,0,0,1.08,1c.68,0,1.06-.5,1.06-1.23V216A1.48,1.48,0,0,0,217.06,214.38Z"/><path class="cls-4" d="M211.52,205.2h1.82v1A1.56,1.56,0,0,0,215,207.8h5v1.94h-8.3v-1.63l1-.12a2.48,2.48,0,0,1-1.21-2.3Z"/><path class="cls-4" d="M217.13,201.92a1.33,1.33,0,0,0,1.5-1.44v-.7c0-.77-.43-1.17-1-1.17v-1.86c1.53,0,2.56,1.19,2.56,3v.81a3,3,0,0,1-3,3.28h-2.32a3.12,3.12,0,0,1-3.31-3.31V200a3.07,3.07,0,0,1,3.26-3.27h1.79v5.24Zm-2.3,0h.31v-3.37h-.31c-1.17,0-1.73.6-1.73,1.48v.39C213.1,201.41,213.76,201.92,214.83,201.92Z"/><path class="cls-4" d="M214.22,187.62H220v1.58l-1,.12a2.35,2.35,0,0,1,1.13,2.11V192a2.47,2.47,0,0,1-2.49,2.77c-1.62,0-2.57-1.15-2.57-2.92v-2.33h-.87c-.69,0-1.07.49-1.07,1.22v.6c0,.78.43,1.21,1.07,1.21v1.85a2.67,2.67,0,0,1-2.7-2.91v-1A2.64,2.64,0,0,1,214.22,187.62Zm2.84,1.89h-.59v2.33a1,1,0,0,0,1.08,1c.68,0,1.06-.5,1.06-1.23v-.54A1.48,1.48,0,0,0,217.06,189.51Z"/><path class="cls-4" d="M175.07,392.85h2.29a2.94,2.94,0,0,1,3.25,3v.36a2.4,2.4,0,0,1-1,2.05h4v1.94H172.15v-1.63l1.13-.14a2.36,2.36,0,0,1-1.3-2.22v-.43A2.83,2.83,0,0,1,175.07,392.85Zm.17,2c-1,0-1.57.54-1.57,1.38v.47c0,1,.79,1.56,2,1.56H177c1.27,0,1.95-.62,1.95-1.56v-.47c0-.89-.68-1.38-1.7-1.38Z"/><path class="cls-4" d="M177.58,388.83a1.33,1.33,0,0,0,1.5-1.44v-.7a1,1,0,0,0-1-1.17v-1.85c1.53,0,2.57,1.19,2.57,3v.82a3,3,0,0,1-3,3.28h-2.31a3.12,3.12,0,0,1-3.31-3.32v-.56a3.07,3.07,0,0,1,3.26-3.26H177v5.23Zm-2.29,0h.31v-3.36h-.31c-1.17,0-1.73.59-1.73,1.48v.39C173.56,388.32,174.22,388.83,175.29,388.83Z"/><path class="cls-4" d="M174.78,374h5.66V376H175a1.14,1.14,0,0,0-1.29,1.18v.49a1.5,1.5,0,0,0,1.63,1.55h5.12v1.94h-8.29v-1.64l1-.12a2.46,2.46,0,0,1-1.2-2.29v-.37A2.55,2.55,0,0,1,174.78,374Z"/><path class="cls-4" d="M174.68,364.69h5.76v1.59l-1,.11a2.34,2.34,0,0,1,1.14,2.11v.56a2.48,2.48,0,0,1-2.5,2.77c-1.61,0-2.57-1.15-2.57-2.92v-2.33h-.86c-.7,0-1.07.49-1.07,1.23v.59c0,.78.42,1.21,1.07,1.21v1.85a2.67,2.67,0,0,1-2.7-2.91v-1A2.64,2.64,0,0,1,174.68,364.69Zm2.84,1.89h-.6v2.33a1,1,0,0,0,1.09,1c.68,0,1.05-.5,1.05-1.23v-.54A1.48,1.48,0,0,0,177.52,366.58Z"/><path class="cls-4" d="M178,362h-9.47v-1.94h9.25c.8,0,1.12-.29,1.12-.92v-.32h1.7v.9C180.61,361.38,179.64,362,178,362Z"/><path class="cls-4" d="M178.86,352.79h1.75V354c0,2.23-.88,2.91-2.57,2.91h-4.35v1.05h-1.54v-1.05h-2.62v-1.94h2.62v-1.84h1.54v1.84h4c.92,0,1.19-.51,1.19-1.38Z"/><path class="cls-4" d="M172.15,343.73l10,3.88a2.27,2.27,0,0,1,1.62,2.34v.92h-1.6v-.81a1,1,0,0,0-.73-1.06l-1.11-.37-8.15,3.19v-2.07l3-1.07c.87-.31,1.85-.63,2.89-.95-1-.31-2-.61-2.87-.92l-3-1Z"/><path class="cls-4" d="M174.78,325.37h5.66v1.94H175a1.13,1.13,0,0,0-1.29,1.18v.4a1.5,1.5,0,0,0,1.63,1.55h5.12v1.94H175a1.13,1.13,0,0,0-1.29,1.17V334a1.51,1.51,0,0,0,1.63,1.55h5.12v1.93h-8.29v-1.63l1-.12a2.43,2.43,0,0,1-1.18-2.28v-.3a2.47,2.47,0,0,1,1.25-2.31,2.69,2.69,0,0,1-1.25-2.4V328A2.55,2.55,0,0,1,174.78,325.37Z"/><path class="cls-4" d="M174.68,316h5.76v1.58l-1,.12a2.33,2.33,0,0,1,1.14,2.11v.56a2.48,2.48,0,0,1-2.5,2.77c-1.61,0-2.57-1.16-2.57-2.92v-2.33h-.86c-.7,0-1.07.49-1.07,1.22v.6c0,.78.42,1.2,1.07,1.2v1.86a2.67,2.67,0,0,1-2.7-2.91v-1A2.64,2.64,0,0,1,174.68,316Zm2.84,1.89h-.6v2.33a1,1,0,0,0,1.09,1c.68,0,1.05-.49,1.05-1.22v-.54A1.48,1.48,0,0,0,177.52,317.93Z"/><path class="cls-4" d="M172,308.75h1.81v1a1.56,1.56,0,0,0,1.69,1.63h5v1.94h-8.29v-1.63l1-.12a2.48,2.48,0,0,1-1.2-2.3Z"/><path class="cls-4" d="M176.68,303.68l1.48,1.28h2.28v1.93h-11.9V305h7.24l-3.63-2.91v-2.26l3.21,2.75,5.08-3.12v2.12Z"/><path class="cls-4" d="M241.53,385.16h2.3a2.94,2.94,0,0,1,3.24,3v.35a2.4,2.4,0,0,1-1,2.06h4v1.94H238.61v-1.63l1.14-.14a2.36,2.36,0,0,1-1.31-2.23v-.42A2.84,2.84,0,0,1,241.53,385.16Zm.17,2c-1,0-1.56.55-1.56,1.38V389c0,1,.78,1.56,2,1.56h1.33c1.28,0,2-.63,2-1.56v-.48c0-.88-.68-1.38-1.7-1.38Z"/><path class="cls-4" d="M244.05,381.15a1.34,1.34,0,0,0,1.5-1.45V379c0-.77-.43-1.17-1-1.17V376c1.53,0,2.56,1.19,2.56,3v.81a3,3,0,0,1-3,3.28h-2.32a3.12,3.12,0,0,1-3.31-3.31v-.56a3.07,3.07,0,0,1,3.26-3.27h1.79v5.24Zm-2.3,0h.31v-3.37h-.31c-1.17,0-1.73.6-1.73,1.48v.39C240,380.64,240.68,381.15,241.75,381.15Z"/><path class="cls-4" d="M241.24,366.34h5.66v1.94h-5.45a1.13,1.13,0,0,0-1.29,1.17v.5a1.5,1.5,0,0,0,1.63,1.54h5.11v1.94h-8.29V371.8l1-.12a2.47,2.47,0,0,1-1.21-2.29V369A2.56,2.56,0,0,1,241.24,366.34Z"/><path class="cls-4" d="M241.14,357h5.76v1.58l-1,.12a2.34,2.34,0,0,1,1.13,2.11v.56a2.48,2.48,0,0,1-2.49,2.77c-1.62,0-2.57-1.16-2.57-2.92V358.9h-.87c-.69,0-1.07.49-1.07,1.22v.6c0,.78.43,1.2,1.07,1.2v1.86a2.67,2.67,0,0,1-2.7-2.91v-1A2.64,2.64,0,0,1,241.14,357ZM244,358.9h-.59v2.33a1,1,0,0,0,1.08,1c.68,0,1.06-.49,1.06-1.22v-.54A1.48,1.48,0,0,0,244,358.9Z"/><path class="cls-4" d="M244.47,354.32H235v-1.93h9.24c.8,0,1.13-.29,1.13-.92v-.32h1.69v.9C247.07,353.7,246.11,354.32,244.47,354.32Z"/><path class="cls-4" d="M245.32,345.11h1.75v1.16c0,2.22-.88,2.9-2.56,2.9h-4.35v1.06h-1.55v-1.06H236v-1.93h2.62V345.4h1.55v1.84h4c.92,0,1.19-.51,1.19-1.38Z"/><path class="cls-4" d="M238.61,336.05l10,3.88a2.27,2.27,0,0,1,1.61,2.34v.92h-1.6v-.82a1,1,0,0,0-.73-1.05l-1.1-.37-8.16,3.19v-2.07l3-1.07c.87-.31,1.86-.63,2.89-1l-2.87-.91-3-1Z"/><path class="cls-4" d="M241.14,323.18h5.76v1.58l-1,.12a2.34,2.34,0,0,1,1.13,2.11v.56a2.47,2.47,0,0,1-2.49,2.77c-1.62,0-2.57-1.16-2.57-2.92v-2.33h-.87c-.69,0-1.07.49-1.07,1.22v.6c0,.78.43,1.2,1.07,1.2V330a2.67,2.67,0,0,1-2.7-2.91v-1A2.64,2.64,0,0,1,241.14,323.18Zm2.84,1.89h-.59v2.33a1,1,0,0,0,1.08,1c.68,0,1.06-.49,1.06-1.22v-.54A1.48,1.48,0,0,0,244,325.07Z"/><path class="cls-4" d="M238.44,315.89h1.82v1a1.56,1.56,0,0,0,1.68,1.63h5v1.94h-8.29v-1.64l1-.11a2.49,2.49,0,0,1-1.21-2.3Z"/><path class="cls-4" d="M243.91,314.51h-2.16a3.09,3.09,0,0,1-3.31-3.35v-.64a2.74,2.74,0,0,1,2.82-3v1.85a1.09,1.09,0,0,0-1.12,1.23v.46c0,1,.65,1.48,1.7,1.48h2c1,0,1.57-.48,1.57-1.48v-.46c0-.78-.41-1.23-1.08-1.23v-1.85a2.72,2.72,0,0,1,2.77,3v.64A3,3,0,0,1,243.91,314.51Z"/><path class="cls-4" d="M505.56,396.21H503.4a3.09,3.09,0,0,1-3.32-3.35v-.64a2.75,2.75,0,0,1,2.83-3v1.85a1.09,1.09,0,0,0-1.13,1.23v.46c0,1,.65,1.48,1.7,1.48h2c1,0,1.57-.48,1.57-1.48v-.46c0-.78-.41-1.23-1.07-1.23v-1.85a2.72,2.72,0,0,1,2.77,3v.64A3,3,0,0,1,505.56,396.21Z"/><path class="cls-4" d="M505.69,385.43a1.33,1.33,0,0,0,1.5-1.44v-.7a1,1,0,0,0-1-1.17v-1.85c1.53,0,2.57,1.19,2.57,3v.82a3,3,0,0,1-3,3.28H503.4a3.13,3.13,0,0,1-3.32-3.32v-.56a3.07,3.07,0,0,1,3.27-3.26h1.78v5.23Zm-2.29,0h.3v-3.36h-.3c-1.17,0-1.74.59-1.74,1.48v.39C501.66,384.92,502.33,385.43,503.4,385.43Z"/><path class="cls-4" d="M502.89,370.63h5.66v1.94h-5.46a1.13,1.13,0,0,0-1.29,1.17v.49a1.5,1.5,0,0,0,1.63,1.55h5.12v1.94h-8.3v-1.64l1-.12a2.46,2.46,0,0,1-1.21-2.29v-.37A2.56,2.56,0,0,1,502.89,370.63Z"/><path class="cls-4" d="M507,363.71h1.75v1.15c0,2.23-.88,2.91-2.57,2.91H501.8v1.05h-1.55v-1.05h-2.61v-1.94h2.61V364h1.55v1.83h4c.92,0,1.19-.51,1.19-1.37Z"/><path class="cls-4" d="M500.08,357.2h1.82v1a1.56,1.56,0,0,0,1.69,1.63h5v1.94h-8.3V360.1l1-.11a2.49,2.49,0,0,1-1.21-2.3Z"/><path class="cls-4" d="M505.69,353.92a1.33,1.33,0,0,0,1.5-1.45v-.7a1,1,0,0,0-1-1.17v-1.85c1.53,0,2.57,1.19,2.57,3v.82a3,3,0,0,1-3,3.28H503.4a3.13,3.13,0,0,1-3.32-3.31v-.57a3.07,3.07,0,0,1,3.27-3.26h1.78v5.24Zm-2.29,0h.3v-3.37h-.3c-1.17,0-1.74.6-1.74,1.48v.39C501.66,353.41,502.33,353.92,503.4,353.92Z"/><path class="cls-4" d="M502.89,329.73h5.66v1.93h-5.46a1.13,1.13,0,0,0-1.29,1.18v.4a1.5,1.5,0,0,0,1.63,1.55h5.12v1.94h-5.46a1.13,1.13,0,0,0-1.29,1.17v.41a1.5,1.5,0,0,0,1.63,1.55h5.12v1.93h-8.3v-1.63l1-.12a2.43,2.43,0,0,1-1.19-2.27v-.31a2.48,2.48,0,0,1,1.26-2.31,2.69,2.69,0,0,1-1.26-2.4v-.37A2.55,2.55,0,0,1,502.89,329.73Z"/><path class="cls-4" d="M502.79,320.39h5.76V322l-1,.12a2.36,2.36,0,0,1,1.14,2.11v.56a2.48,2.48,0,0,1-2.5,2.77c-1.61,0-2.57-1.15-2.57-2.92v-2.33h-.86c-.7,0-1.07.49-1.07,1.22v.6c0,.78.42,1.21,1.07,1.21v1.85a2.68,2.68,0,0,1-2.71-2.91v-1A2.65,2.65,0,0,1,502.79,320.39Zm2.83,1.89H505v2.33a1,1,0,0,0,1.09,1c.68,0,1.05-.5,1.05-1.23v-.54A1.48,1.48,0,0,0,505.62,322.28Z"/><path class="cls-4" d="M500.08,313.1h1.82v1a1.56,1.56,0,0,0,1.69,1.63h5v1.94h-8.3V316l1-.12a2.49,2.49,0,0,1-1.21-2.3Z"/><path class="cls-4" d="M504.79,308l1.48,1.28h2.28v1.94h-11.9v-1.94h7.24l-3.64-2.91v-2.26l3.22,2.76,5.08-3.13v2.12Z"/><path class="cls-4" d="M574.41,397.88h-2.16a3.09,3.09,0,0,1-3.31-3.35v-.65a2.73,2.73,0,0,1,2.82-3v1.85a1.08,1.08,0,0,0-1.12,1.23v.45c0,1,.64,1.48,1.7,1.48h2a1.36,1.36,0,0,0,1.56-1.48V394c0-.79-.41-1.23-1.07-1.23v-1.85a2.71,2.71,0,0,1,2.77,3v.65A3,3,0,0,1,574.41,397.88Z"/><path class="cls-4" d="M574.55,387.1a1.33,1.33,0,0,0,1.49-1.44V385c0-.77-.42-1.18-1-1.18v-1.85c1.53,0,2.56,1.19,2.56,3v.81a3,3,0,0,1-3,3.28h-2.31a3.12,3.12,0,0,1-3.31-3.31v-.56a3.07,3.07,0,0,1,3.26-3.27H574v5.24Zm-2.3,0h.31v-3.37h-.31c-1.17,0-1.73.6-1.73,1.48v.39C570.52,386.59,571.18,387.1,572.25,387.1Z"/><path class="cls-4" d="M571.74,372.29h5.66v1.94H572a1.14,1.14,0,0,0-1.3,1.17v.5a1.51,1.51,0,0,0,1.64,1.54h5.11v1.94h-8.29v-1.63l1-.12a2.49,2.49,0,0,1-1.2-2.29V375A2.56,2.56,0,0,1,571.74,372.29Z"/><path class="cls-4" d="M575.82,365.37h1.75v1.16c0,2.23-.88,2.91-2.56,2.91h-4.36v1.05h-1.54v-1.05h-2.62V367.5h2.62v-1.84h1.54v1.84h4c.92,0,1.19-.51,1.19-1.38Z"/><path class="cls-4" d="M568.94,358.86h1.82v1a1.55,1.55,0,0,0,1.68,1.63h5v1.94h-8.29v-1.63l1-.12a2.49,2.49,0,0,1-1.2-2.29Z"/><path class="cls-4" d="M574.55,355.58a1.33,1.33,0,0,0,1.49-1.44v-.7c0-.76-.42-1.17-1-1.17v-1.86c1.53,0,2.56,1.19,2.56,3v.81a3,3,0,0,1-3,3.29h-2.31a3.13,3.13,0,0,1-3.31-3.32v-.56a3.07,3.07,0,0,1,3.26-3.26H574v5.23Zm-2.3,0h.31v-3.36h-.31c-1.17,0-1.73.59-1.73,1.48v.39C570.52,355.07,571.18,355.58,572.25,355.58Z"/><path class="cls-4" d="M574.41,343.85h-2.16a3.09,3.09,0,0,1-3.31-3.35v-.64a2.74,2.74,0,0,1,2.82-3v1.86a1.08,1.08,0,0,0-1.12,1.22v.46c0,1,.64,1.48,1.7,1.48h2a1.36,1.36,0,0,0,1.56-1.48V340c0-.78-.41-1.22-1.07-1.22v-1.86a2.72,2.72,0,0,1,2.77,3v.64A3,3,0,0,1,574.41,343.85Z"/><path class="cls-4" d="M565.79,334.59v-1.94h1.84v1.94Zm3.32,0v-1.94h8.29v1.94Z"/><path class="cls-4" d="M568.94,325.22h1.82v1a1.56,1.56,0,0,0,1.68,1.63h5v1.94h-8.29v-1.63l1-.12a2.5,2.5,0,0,1-1.2-2.3Z"/><path class="cls-4" d="M574.41,323.84h-2.16a3.09,3.09,0,0,1-3.31-3.35v-.64a2.74,2.74,0,0,1,2.82-3v1.86a1.08,1.08,0,0,0-1.12,1.22v.46c0,1,.64,1.48,1.7,1.48h2a1.36,1.36,0,0,0,1.56-1.48V320c0-.78-.41-1.22-1.07-1.22v-1.86a2.72,2.72,0,0,1,2.77,3v.64A3,3,0,0,1,574.41,323.84Z"/><path class="cls-4" d="M575,314.65H565.5v-1.94h9.25c.8,0,1.12-.29,1.12-.92v-.32h1.7v.9C577.57,314,576.6,314.65,575,314.65Z"/><path class="cls-4" d="M574.55,308a1.33,1.33,0,0,0,1.49-1.45v-.7c0-.76-.42-1.17-1-1.17V302.8c1.53,0,2.56,1.19,2.56,3v.82a3,3,0,0,1-3,3.28h-2.31a3.13,3.13,0,0,1-3.31-3.32V306a3.07,3.07,0,0,1,3.26-3.26H574V308Zm-2.3,0h.31V304.6h-.31c-1.17,0-1.73.6-1.73,1.48v.39C570.52,307.46,571.18,308,572.25,308Z"/><line class="cls-9" x1="841.16" y1="128.48" x2="841.16" y2="80.98"/><polygon class="cls-5" points="845.02 82.11 841.16 75.42 837.3 82.11 845.02 82.11"/><line class="cls-9" x1="841.16" y1="128.48" x2="887.68" y2="128.48"/><polygon class="cls-5" points="886.55 132.34 893.23 128.48 886.55 124.62 886.55 132.34"/><circle class="cls-3" cx="91.52" cy="610.54" r="57.11"/><g class="cls-10"><path class="cls-5" d="M98.78,614.32v11.37h-2v-9.15L94.67,618v-2l2.3-1.64Z"/><path class="cls-5" d="M115.41,620.12v5.57H113.5v-5.37a1.11,1.11,0,0,0-1.16-1.27h-.4a1.48,1.48,0,0,0-1.52,1.61v5h-1.9v-5.37a1.12,1.12,0,0,0-1.16-1.27H107a1.48,1.48,0,0,0-1.52,1.61v5h-1.91v-8.16h1.61l.11,1a2.41,2.41,0,0,1,2.25-1.17h.3a2.44,2.44,0,0,1,2.27,1.24,2.65,2.65,0,0,1,2.36-1.24h.37A2.51,2.51,0,0,1,115.41,620.12Z"/><line class="cls-11" x1="70.02" y1="630.94" x2="99.88" y2="601.08"/><polygon class="cls-5" points="102.08 605.12 104.37 596.59 95.84 598.87 102.08 605.12"/><path class="cls-12" d="M123.16,632.92a54.77,54.77,0,0,0-54.71-54.71"/><polyline class="cls-12" points="68.45 552.74 68.45 632.92 148.63 632.92"/></g><circle class="cls-13" cx="91.52" cy="610.54" r="57.11"/><path class="cls-5" d="M70.27,646v1.27h-.8a1.81,1.81,0,0,0-1.9,1.93v5.24H66.25v-8.27h1l.11,1a2.5,2.5,0,0,1,2.29-1.2Z"/><path class="cls-5" d="M78.07,648.51v5.9h-1l-.1-.93a2.28,2.28,0,0,1-2.07,1.1h-.61a2.51,2.51,0,0,1-2.77-2.52,2.41,2.41,0,0,1,2.56-2.53h2.68v-1a1.25,1.25,0,0,0-1.42-1.27h-.7a1.25,1.25,0,0,0-1.42,1.27H71.88A2.5,2.5,0,0,1,74.62,646h.7A2.51,2.51,0,0,1,78.07,648.51Zm-1.33,3v-.72H74.06a1.16,1.16,0,0,0-1.22,1.28,1.26,1.26,0,0,0,1.43,1.25h.61A1.75,1.75,0,0,0,76.74,651.5Z"/><path class="cls-5" d="M87.51,642.55v11.86h-1l-.14-1.2a2.38,2.38,0,0,1-2.27,1.37h-.42a2.86,2.86,0,0,1-3-3.08v-2.29a3,3,0,0,1,3-3.24h.35A2.4,2.4,0,0,1,86.19,647v-4.49ZM86.19,651v-1.53c0-1.45-.77-2.27-1.9-2.27h-.56c-1.07,0-1.68.78-1.68,2v2.29a1.62,1.62,0,0,0,1.68,1.81h.56C85.51,653.31,86.19,652.4,86.19,651Z"/><path class="cls-5" d="M90.73,643h1.32v1.58H90.73Zm0,3.19h1.32v8.27H90.73Z"/><path class="cls-5" d="M101.66,646.14v8.27h-1l-.12-1a2.49,2.49,0,0,1-2.29,1.2h-.38a2.62,2.62,0,0,1-2.76-2.8v-5.64h1.32v5.64a1.37,1.37,0,0,0,1.44,1.53h.58a1.81,1.81,0,0,0,1.9-1.93v-5.24Z"/><path class="cls-5" d="M104.31,652.09h1.34c0,.93.66,1.22,1.64,1.22h.34c1.37,0,1.91-.52,1.91-1.3s-.64-1.11-1.88-1.24c-2.37-.26-3.22-.78-3.22-2.36s1.19-2.44,3-2.44h.17c1.79,0,3,.8,3,2.49h-1.34c0-.93-.66-1.22-1.64-1.22h-.19c-1.26,0-1.66.46-1.66,1.15s.57.94,2,1.09c2.2.22,3,.92,3,2.46,0,1.85-1.29,2.64-3.24,2.64h-.32C105.49,654.58,104.31,653.79,104.31,652.09Z"/></g></svg>